%TF.GenerationSoftware,KiCad,Pcbnew,10.0.4*%
%TF.CreationDate,2026-07-09T12:55:40+05:30*%
%TF.ProjectId,adhyayan,61646879-6179-4616-9e2e-6b696361645f,rev?*%
%TF.SameCoordinates,Original*%
%TF.FileFunction,Copper,L2,Bot*%
%TF.FilePolarity,Positive*%
%FSLAX46Y46*%
G04 Gerber Fmt 4.6, Leading zero omitted, Abs format (unit mm)*
G04 Created by KiCad (PCBNEW 10.0.4) date 2026-07-09 12:55:40*
%MOMM*%
%LPD*%
G01*
G04 APERTURE LIST*
%TA.AperFunction,ComponentPad*%
%ADD10R,1.700000X1.700000*%
%TD*%
%TA.AperFunction,ComponentPad*%
%ADD11C,1.700000*%
%TD*%
%TA.AperFunction,ComponentPad*%
%ADD12O,1.000000X2.100000*%
%TD*%
%TA.AperFunction,ComponentPad*%
%ADD13O,1.000000X1.600000*%
%TD*%
%TA.AperFunction,ViaPad*%
%ADD14C,0.600000*%
%TD*%
%TA.AperFunction,Conductor*%
%ADD15C,0.200000*%
%TD*%
G04 APERTURE END LIST*
D10*
%TO.P,J3,1,Pin_1_1*%
%TO.N,+3.3V*%
X99060000Y-62230000D03*
D11*
%TO.P,J3,2,Pin_2_2*%
%TO.N,GND*%
X99060000Y-64770000D03*
%TO.P,J3,3,Pin_3_3*%
%TO.N,/SCK*%
X99060000Y-67310000D03*
%TO.P,J3,4,Pin_4_4*%
%TO.N,/MISO*%
X99060000Y-69850000D03*
%TO.P,J3,5,Pin_5_5*%
%TO.N,/MOSI*%
X99060000Y-72390000D03*
%TO.P,J3,6,Pin_6_6*%
%TO.N,/CHIP-SEL*%
X99060000Y-74930000D03*
%TD*%
D10*
%TO.P,SEN1,1,Pin_1_1*%
%TO.N,+3.3V*%
X94220000Y-33020000D03*
D11*
%TO.P,SEN1,2,Pin_2_2*%
%TO.N,/USB5V*%
X94220000Y-35560000D03*
%TO.P,SEN1,3,Pin_3_3*%
%TO.N,GND*%
X94220000Y-38100000D03*
%TO.P,SEN1,4,Pin_4_4*%
%TO.N,/SDA*%
X94220000Y-40640000D03*
%TO.P,SEN1,5,Pin_5_5*%
%TO.N,/SCL*%
X94220000Y-43180000D03*
%TO.P,SEN1,6,Pin_6_6*%
%TO.N,/SEN101*%
X94220000Y-45720000D03*
%TO.P,SEN1,7,Pin_7_7*%
%TO.N,/SEN102*%
X94220000Y-48260000D03*
%TD*%
D10*
%TO.P,I2C1,1,Pin_1_1*%
%TO.N,+3.3V*%
X99060000Y-86360000D03*
D11*
%TO.P,I2C1,2,Pin_2_2*%
%TO.N,GND*%
X99060000Y-88900000D03*
%TO.P,I2C1,3,Pin_3_3*%
%TO.N,/SCL*%
X99060000Y-91440000D03*
%TO.P,I2C1,4,Pin_4_4*%
%TO.N,/SDA*%
X99060000Y-93980000D03*
%TD*%
D10*
%TO.P,SERVO1,1,Pin_1_1*%
%TO.N,GND*%
X83820000Y-114300000D03*
D11*
%TO.P,SERVO1,2,Pin_2_2*%
%TO.N,+3.3V*%
X83820000Y-116840000D03*
%TO.P,SERVO1,3,Pin_3_3*%
%TO.N,/PA1*%
X83820000Y-119380000D03*
%TD*%
D10*
%TO.P,SEN2,1,Pin_1_1*%
%TO.N,+3.3V*%
X80320000Y-33020000D03*
D11*
%TO.P,SEN2,2,Pin_2_2*%
%TO.N,/USB5V*%
X80320000Y-35560000D03*
%TO.P,SEN2,3,Pin_3_3*%
%TO.N,GND*%
X80320000Y-38100000D03*
%TO.P,SEN2,4,Pin_4_4*%
%TO.N,/SDA*%
X80320000Y-40640000D03*
%TO.P,SEN2,5,Pin_5_5*%
%TO.N,/SCL*%
X80320000Y-43180000D03*
%TO.P,SEN2,6,Pin_6_6*%
%TO.N,/SEN201*%
X80320000Y-45720000D03*
%TO.P,SEN2,7,Pin_7_7*%
%TO.N,/SEN202*%
X80320000Y-48260000D03*
%TD*%
D10*
%TO.P,SEN4,1,Pin_1_1*%
%TO.N,+3.3V*%
X121720000Y-33020000D03*
D11*
%TO.P,SEN4,2,Pin_2_2*%
%TO.N,/USB5V*%
X121720000Y-35560000D03*
%TO.P,SEN4,3,Pin_3_3*%
%TO.N,GND*%
X121720000Y-38100000D03*
%TO.P,SEN4,4,Pin_4_4*%
%TO.N,/SDA*%
X121720000Y-40640000D03*
%TO.P,SEN4,5,Pin_5_5*%
%TO.N,/SCL*%
X121720000Y-43180000D03*
%TO.P,SEN4,6,Pin_6_6*%
%TO.N,/SEN401*%
X121720000Y-45720000D03*
%TO.P,SEN4,7,Pin_7_7*%
%TO.N,/SEN402*%
X121720000Y-48260000D03*
%TD*%
D10*
%TO.P,SERVO4,1,Pin_1_1*%
%TO.N,GND*%
X116840000Y-114300000D03*
D11*
%TO.P,SERVO4,2,Pin_2_2*%
%TO.N,+3.3V*%
X116840000Y-116840000D03*
%TO.P,SERVO4,3,Pin_3_3*%
%TO.N,/PA8*%
X116840000Y-119380000D03*
%TD*%
D10*
%TO.P,SERVO2,1,Pin_1_1*%
%TO.N,GND*%
X95180000Y-114300000D03*
D11*
%TO.P,SERVO2,2,Pin_2_2*%
%TO.N,+3.3V*%
X95180000Y-116840000D03*
%TO.P,SERVO2,3,Pin_3_3*%
%TO.N,/PA2*%
X95180000Y-119380000D03*
%TD*%
D10*
%TO.P,UART1,1,Pin_1_1*%
%TO.N,+3.3V*%
X116840000Y-86360000D03*
D11*
%TO.P,UART1,2,Pin_2_2*%
%TO.N,GND*%
X116840000Y-88900000D03*
%TO.P,UART1,3,Pin_3_3*%
%TO.N,/TRANSM*%
X116840000Y-91440000D03*
%TO.P,UART1,4,Pin_4_4*%
%TO.N,/RECIEVER*%
X116840000Y-93980000D03*
%TD*%
D10*
%TO.P,WIRELESS,1,Pin_1_1*%
%TO.N,+3.3V*%
X63500000Y-109220000D03*
D11*
%TO.P,WIRELESS,2,Pin_2_2*%
%TO.N,GND*%
X60960000Y-109220000D03*
%TO.P,WIRELESS,3,Pin_3_3*%
%TO.N,/MOSI2*%
X63500000Y-111760000D03*
%TO.P,WIRELESS,4,Pin_4_4*%
%TO.N,/MISO2*%
X60960000Y-111760000D03*
%TO.P,WIRELESS,5,Pin_5_5*%
%TO.N,/SCK2*%
X63500000Y-114300000D03*
%TO.P,WIRELESS,6,Pin_6_6*%
%TO.N,/CS2*%
X60960000Y-114300000D03*
%TO.P,WIRELESS,7,Pin_7_7*%
%TO.N,/WIFI_RST*%
X63500000Y-116840000D03*
%TO.P,WIRELESS,8,Pin_8_8*%
%TO.N,/WIFI_EN*%
X60960000Y-116840000D03*
%TO.P,WIRELESS,9,Pin_9_9*%
%TO.N,/WIFI_INTR*%
X63500000Y-119380000D03*
%TO.P,WIRELESS,10,Pin_10_10*%
%TO.N,/UART_TRAN*%
X60960000Y-119380000D03*
%TO.P,WIRELESS,11,Pin_11_11*%
%TO.N,/UART_REC*%
X63500000Y-121920000D03*
%TO.P,WIRELESS,12,Pin_12_12*%
%TO.N,/WIFI_GPIO*%
X60960000Y-121920000D03*
%TD*%
D10*
%TO.P,J1,1,Pin_1_1*%
%TO.N,+3.3V*%
X116840000Y-62230000D03*
D11*
%TO.P,J1,2,Pin_2_2*%
%TO.N,/SWDIO*%
X116840000Y-64770000D03*
%TO.P,J1,3,Pin_3_3*%
%TO.N,GND*%
X116840000Y-67310000D03*
%TO.P,J1,4,Pin_4_4*%
%TO.N,/SWCLK*%
X116840000Y-69850000D03*
%TO.P,J1,5,Pin_5_5*%
%TO.N,/RESET*%
X116840000Y-72390000D03*
%TO.P,J1,6,Pin_6_6*%
%TO.N,/SWO*%
X116840000Y-74930000D03*
%TD*%
D12*
%TO.P,USBC,SH,SHIELD_SH*%
%TO.N,GND*%
X31490000Y-32430000D03*
D13*
X31490000Y-36610000D03*
D12*
X40130000Y-32430000D03*
D13*
X40130000Y-36610000D03*
%TD*%
D10*
%TO.P,SERVO3,1,Pin_1_1*%
%TO.N,GND*%
X106680000Y-114300000D03*
D11*
%TO.P,SERVO3,2,Pin_2_2*%
%TO.N,+3.3V*%
X106680000Y-116840000D03*
%TO.P,SERVO3,3,Pin_3_3*%
%TO.N,/PA3*%
X106680000Y-119380000D03*
%TD*%
D10*
%TO.P,SEN3,1,Pin_1_1*%
%TO.N,+3.3V*%
X109220000Y-33020000D03*
D11*
%TO.P,SEN3,2,Pin_2_2*%
%TO.N,/USB5V*%
X109220000Y-35560000D03*
%TO.P,SEN3,3,Pin_3_3*%
%TO.N,GND*%
X109220000Y-38100000D03*
%TO.P,SEN3,4,Pin_4_4*%
%TO.N,/SDA*%
X109220000Y-40640000D03*
%TO.P,SEN3,5,Pin_5_5*%
%TO.N,/SCL*%
X109220000Y-43180000D03*
%TO.P,SEN3,6,Pin_6_6*%
%TO.N,/SEN301*%
X109220000Y-45720000D03*
%TO.P,SEN3,7,Pin_7_7*%
%TO.N,/SEN302*%
X109220000Y-48260000D03*
%TD*%
D14*
%TO.N,+3.3V*%
X62273300Y-79919300D03*
X58463500Y-59399600D03*
%TO.N,GND*%
X71666400Y-80727000D03*
X46009300Y-105528800D03*
X38588700Y-47569100D03*
X77203200Y-74700000D03*
X82508600Y-58337500D03*
X44308100Y-119705000D03*
%TO.N,/SCK*%
X94746500Y-67620900D03*
X89043600Y-88893600D03*
%TO.N,/MISO*%
X72925200Y-82306200D03*
X88812400Y-72259800D03*
%TO.N,/MOSI*%
X92215300Y-72390000D03*
X88276900Y-87168300D03*
%TO.N,/CHIP-SEL*%
X87608100Y-88173200D03*
X90086400Y-73067000D03*
%TO.N,/SDA*%
X73107600Y-66648300D03*
%TO.N,/SCL*%
X74250100Y-69835100D03*
%TO.N,/SEN101*%
X87445400Y-64824300D03*
%TO.N,Net-(JP1-B)*%
X62273300Y-77241500D03*
X65410700Y-59556500D03*
%TO.N,/PA1*%
X80745800Y-91905400D03*
%TO.N,/SEN201*%
X79134500Y-67168200D03*
%TO.N,/SEN202*%
X80238500Y-69872700D03*
%TO.N,/PA12*%
X81037100Y-49742800D03*
X80754700Y-71979900D03*
%TO.N,Net-(U2-VCAP_1)*%
X85516700Y-84996500D03*
X85185000Y-59496000D03*
%TO.N,/PA8*%
X95790400Y-75893700D03*
%TO.N,/PA2*%
X86226900Y-90607500D03*
%TO.N,/PA11*%
X87178300Y-72689100D03*
X86558100Y-46990000D03*
%TO.N,/PWMB*%
X83243300Y-104302300D03*
X83243300Y-74700000D03*
%TO.N,/BIN2*%
X82200000Y-67218600D03*
X41410700Y-121106200D03*
%TO.N,/BIN1*%
X49447300Y-120355000D03*
X83568600Y-67185900D03*
%TO.N,/MOTOR_EN*%
X49708800Y-119055000D03*
X82338200Y-70150200D03*
%TO.N,/AIN1*%
X50969100Y-116609600D03*
X74498900Y-76600200D03*
%TO.N,/AIN2*%
X72349500Y-75700000D03*
X51785800Y-114828900D03*
%TO.N,/PWMA*%
X59400000Y-91379500D03*
X86949700Y-76200000D03*
X54827000Y-111714000D03*
X84036600Y-92547300D03*
%TO.N,/MOSI2*%
X74789700Y-82490100D03*
%TO.N,/MISO2*%
X80100600Y-101195100D03*
X80904400Y-85517800D03*
%TO.N,/SCK2*%
X67131400Y-114300000D03*
X76572300Y-86116600D03*
%TO.N,/CS2*%
X72958200Y-100453600D03*
X78181800Y-97302300D03*
X79148700Y-85436300D03*
%TO.N,/WIFI_RST*%
X79007900Y-81055700D03*
%TO.N,/WIFI_EN*%
X81496200Y-78978000D03*
%TO.N,/WIFI_INTR*%
X77298700Y-80654000D03*
%TO.N,/UART_TRAN*%
X81950000Y-79679100D03*
%TO.N,/UART_REC*%
X79638900Y-78908800D03*
%TO.N,/WIFI_GPIO*%
X80647400Y-77483800D03*
%TO.N,Net-(D1-A)*%
X48361600Y-34013600D03*
X35712100Y-73993000D03*
%TO.N,/RESET*%
X115921500Y-84179600D03*
%TO.N,/SWCLK*%
X87202700Y-66452700D03*
X88022200Y-72861500D03*
%TO.N,/SWO*%
X88706700Y-55767700D03*
X94095900Y-74070400D03*
%TO.N,Net-(F1-Pad2)*%
X40598700Y-30484800D03*
X38465600Y-29058600D03*
%TO.N,Net-(U2-VCAP_2)*%
X84072800Y-71615300D03*
X82718200Y-61756000D03*
%TO.N,/PA3*%
X90942100Y-89993600D03*
%TD*%
%TO.N,+3.3V*%
D15*
X94220000Y-34171700D02*
X94507900Y-34171700D01*
X116840000Y-62230000D02*
X116840000Y-63381700D01*
X58463500Y-76109500D02*
X58463500Y-59399600D01*
X116840000Y-86360000D02*
X116840000Y-85208300D01*
X117991700Y-64245400D02*
X117128000Y-63381700D01*
X117128000Y-87511700D02*
X116840000Y-87511700D01*
X118393400Y-115286600D02*
X118393400Y-88777100D01*
X116840000Y-116840000D02*
X118393400Y-115286600D01*
X118393400Y-88777100D02*
X117128000Y-87511700D01*
X99060000Y-38723800D02*
X99060000Y-62230000D01*
X117991700Y-84056600D02*
X117991700Y-64245400D01*
X94220000Y-33020000D02*
X94220000Y-34171700D01*
X94507900Y-34171700D02*
X99060000Y-38723800D01*
X117128000Y-63381700D02*
X116840000Y-63381700D01*
X116840000Y-85208300D02*
X117991700Y-84056600D01*
X62273300Y-79919300D02*
X58463500Y-76109500D01*
X116840000Y-86360000D02*
X116840000Y-87511700D01*
%TO.N,GND*%
X117991700Y-90051700D02*
X116840000Y-88900000D01*
X80320000Y-38100000D02*
X82508600Y-40288600D01*
X31490000Y-36610000D02*
X31490000Y-32430000D01*
X77203200Y-75190200D02*
X71666400Y-80727000D01*
X99060000Y-88900000D02*
X97843900Y-87683900D01*
X97843900Y-65986100D02*
X99060000Y-64770000D01*
X82508600Y-40288600D02*
X82508600Y-58337500D01*
X115286600Y-68863400D02*
X115286600Y-87346600D01*
X97908300Y-63618300D02*
X97908300Y-41788300D01*
X40130000Y-36610000D02*
X40130000Y-46027800D01*
X97843900Y-87683900D02*
X97843900Y-65986100D01*
X46009300Y-105528800D02*
X44308100Y-107230000D01*
X117991700Y-111996600D02*
X117991700Y-90051700D01*
X116840000Y-114300000D02*
X116840000Y-113148300D01*
X40130000Y-46027800D02*
X38588700Y-47569100D01*
X77203200Y-74700000D02*
X77203200Y-75190200D01*
X116840000Y-113148300D02*
X117991700Y-111996600D01*
X97908300Y-41788300D02*
X94220000Y-38100000D01*
X99060000Y-64770000D02*
X97908300Y-63618300D01*
X44308100Y-107230000D02*
X44308100Y-119705000D01*
X115286600Y-87346600D02*
X116840000Y-88900000D01*
X40130000Y-36610000D02*
X40130000Y-32430000D01*
X116840000Y-67310000D02*
X115286600Y-68863400D01*
%TO.N,/SCK*%
X89043600Y-88893600D02*
X94746500Y-83190700D01*
X94746500Y-83190700D02*
X94746500Y-67620900D01*
%TO.N,/MISO*%
X85213200Y-85606200D02*
X85827100Y-85606200D01*
X72925200Y-81904700D02*
X80161100Y-74668800D01*
X84915000Y-85308000D02*
X85213200Y-85606200D01*
X83480500Y-74074300D02*
X84915000Y-75508800D01*
X72925200Y-82306200D02*
X72925200Y-81904700D01*
X84915000Y-75508800D02*
X84915000Y-85308000D01*
X81215500Y-74074300D02*
X83480500Y-74074300D01*
X86260000Y-85173300D02*
X86260000Y-76004000D01*
X85827100Y-85606200D02*
X86260000Y-85173300D01*
X86260000Y-76004000D02*
X88812400Y-73451600D01*
X88812400Y-73451600D02*
X88812400Y-72259800D01*
X80161100Y-74668800D02*
X80621000Y-74668800D01*
X80621000Y-74668800D02*
X81215500Y-74074300D01*
%TO.N,/MOSI*%
X88276900Y-87168300D02*
X88276900Y-76328400D01*
X88276900Y-76328400D02*
X92215300Y-72390000D01*
%TO.N,/CHIP-SEL*%
X87608100Y-75545300D02*
X90086400Y-73067000D01*
X87608100Y-88173200D02*
X87608100Y-75545300D01*
%TO.N,/SDA*%
X80320000Y-40640000D02*
X73107600Y-47852400D01*
X95406300Y-41826300D02*
X95406300Y-74786200D01*
X94220000Y-40640000D02*
X95406300Y-41826300D01*
X95188600Y-90108600D02*
X99060000Y-93980000D01*
X95188600Y-75003900D02*
X95188600Y-90108600D01*
X95406300Y-74786200D02*
X95188600Y-75003900D01*
X73107600Y-47852400D02*
X73107600Y-66648300D01*
%TO.N,/SCL*%
X107589600Y-44810400D02*
X107589600Y-82910400D01*
X109220000Y-43180000D02*
X107589600Y-44810400D01*
X74250100Y-49249900D02*
X80320000Y-43180000D01*
X74250100Y-69835100D02*
X74250100Y-49249900D01*
X107589600Y-82910400D02*
X99060000Y-91440000D01*
%TO.N,/SEN101*%
X87445400Y-52494600D02*
X87445400Y-64824300D01*
X94220000Y-45720000D02*
X87445400Y-52494600D01*
%TO.N,Net-(JP1-B)*%
X62273300Y-77241500D02*
X62273300Y-62693900D01*
X62273300Y-62693900D02*
X65410700Y-59556500D01*
%TO.N,/PA1*%
X80745800Y-116305800D02*
X83820000Y-119380000D01*
X80745800Y-91905400D02*
X80745800Y-116305800D01*
%TO.N,/SEN201*%
X79134500Y-46905500D02*
X79134500Y-67168200D01*
X80320000Y-45720000D02*
X79134500Y-46905500D01*
%TO.N,/SEN202*%
X80238500Y-48341500D02*
X80238500Y-69872700D01*
X80320000Y-48260000D02*
X80238500Y-48341500D01*
%TO.N,/PA12*%
X81037100Y-49742800D02*
X81037100Y-71697500D01*
X81037100Y-71697500D02*
X80754700Y-71979900D01*
%TO.N,Net-(U2-VCAP_1)*%
X85516700Y-59827700D02*
X85185000Y-59496000D01*
X85516700Y-84996500D02*
X85516700Y-59827700D01*
%TO.N,/PA8*%
X95790500Y-75893700D02*
X95790400Y-75893700D01*
X99513000Y-92710000D02*
X98616600Y-92710000D01*
X98616600Y-92710000D02*
X95790500Y-89883900D01*
X116840000Y-119380000D02*
X115450200Y-117990200D01*
X115450200Y-108647200D02*
X99513000Y-92710000D01*
X115450200Y-117990200D02*
X115450200Y-108647200D01*
X95790500Y-89883900D02*
X95790500Y-75893700D01*
%TO.N,/PA2*%
X95180000Y-119380000D02*
X86226900Y-110426900D01*
X86226900Y-110426900D02*
X86226900Y-90607500D01*
%TO.N,/PA11*%
X86558100Y-72068900D02*
X86558100Y-46990000D01*
X87178300Y-72689100D02*
X86558100Y-72068900D01*
%TO.N,/PWMB*%
X83243300Y-74700000D02*
X83243300Y-104302300D01*
%TO.N,/BIN2*%
X41410700Y-105753600D02*
X73842200Y-73322100D01*
X81646600Y-71939100D02*
X81646600Y-67772000D01*
X73842200Y-73322100D02*
X80263600Y-73322100D01*
X81646600Y-67772000D02*
X82200000Y-67218600D01*
X80263600Y-73322100D02*
X81646600Y-71939100D01*
X41410700Y-121106200D02*
X41410700Y-105753600D01*
%TO.N,/BIN1*%
X49447300Y-120355000D02*
X58536600Y-111265700D01*
X79945100Y-74267100D02*
X80454700Y-74267100D01*
X80454700Y-74267100D02*
X83568600Y-71153200D01*
X58536600Y-111265700D02*
X58536600Y-95675600D01*
X58536600Y-95675600D02*
X79945100Y-74267100D01*
X83568600Y-71153200D02*
X83568600Y-67185900D01*
%TO.N,/MOTOR_EN*%
X79720400Y-73865400D02*
X80288400Y-73865400D01*
X49708800Y-119055000D02*
X57968700Y-110795100D01*
X82191000Y-71962800D02*
X82191000Y-70297400D01*
X57968700Y-110795100D02*
X57968700Y-95617100D01*
X82191000Y-70297400D02*
X82338200Y-70150200D01*
X80288400Y-73865400D02*
X82191000Y-71962800D01*
X57968700Y-95617100D02*
X79720400Y-73865400D01*
%TO.N,/AIN1*%
X71064700Y-80602400D02*
X55712700Y-95954400D01*
X55712700Y-111866000D02*
X50969100Y-116609600D01*
X74498900Y-76600200D02*
X71064700Y-80034400D01*
X55712700Y-95954400D02*
X55712700Y-111866000D01*
X71064700Y-80034400D02*
X71064700Y-80602400D01*
%TO.N,/AIN2*%
X51785800Y-96263700D02*
X72349500Y-75700000D01*
X51785800Y-114828900D02*
X51785800Y-96263700D01*
%TO.N,/PWMA*%
X86949700Y-85051700D02*
X84036600Y-87964800D01*
X54827000Y-95952500D02*
X54827000Y-111714000D01*
X84036600Y-87964800D02*
X84036600Y-92547300D01*
X86949700Y-76200000D02*
X86949700Y-85051700D01*
X59400000Y-91379500D02*
X54827000Y-95952500D01*
%TO.N,/MOSI2*%
X74789700Y-100470300D02*
X63500000Y-111760000D01*
X74789700Y-82490100D02*
X74789700Y-100470300D01*
%TO.N,/MISO2*%
X80904400Y-88612900D02*
X80100600Y-89416700D01*
X80904400Y-85517800D02*
X80904400Y-88612900D01*
X80100600Y-89416700D02*
X80100600Y-101195100D01*
%TO.N,/SCK2*%
X67131400Y-114300000D02*
X76572300Y-104859100D01*
X76572300Y-104859100D02*
X76572300Y-86116600D01*
%TO.N,/CS2*%
X79148700Y-96335400D02*
X78181800Y-97302300D01*
X70130000Y-100453600D02*
X72958200Y-100453600D01*
X62111700Y-108471900D02*
X70130000Y-100453600D01*
X79148700Y-85436300D02*
X79148700Y-96335400D01*
X60960000Y-114300000D02*
X62111700Y-113148300D01*
X62111700Y-113148300D02*
X62111700Y-108471900D01*
%TO.N,/WIFI_RST*%
X76697000Y-80806400D02*
X75970600Y-81532800D01*
X75970600Y-104369400D02*
X63500000Y-116840000D01*
X78004500Y-80052300D02*
X77049600Y-80052300D01*
X79007900Y-81055700D02*
X78004500Y-80052300D01*
X76697000Y-80404900D02*
X76697000Y-80806400D01*
X75970600Y-81532800D02*
X75970600Y-104369400D01*
X77049600Y-80052300D02*
X76697000Y-80404900D01*
%TO.N,/WIFI_EN*%
X75893600Y-80072300D02*
X75893600Y-80473800D01*
X79420100Y-77708500D02*
X79045300Y-78083300D01*
X73928600Y-82721700D02*
X59757900Y-96892400D01*
X59757900Y-115637900D02*
X60960000Y-116840000D01*
X73928600Y-82438800D02*
X73928600Y-82721700D01*
X77410600Y-79248900D02*
X76717000Y-79248900D01*
X75893600Y-80473800D02*
X73928600Y-82438800D01*
X78576200Y-78083300D02*
X77410600Y-79248900D01*
X80999400Y-78782300D02*
X79925600Y-77708500D01*
X79045300Y-78083300D02*
X78576200Y-78083300D01*
X59757900Y-96892400D02*
X59757900Y-115637900D01*
X79925600Y-77708500D02*
X79420100Y-77708500D01*
X81496200Y-78978000D02*
X81300500Y-78782300D01*
X81300500Y-78782300D02*
X80999400Y-78782300D01*
X76717000Y-79248900D02*
X75893600Y-80072300D01*
%TO.N,/WIFI_INTR*%
X63500000Y-119380000D02*
X77298700Y-105581300D01*
X77298700Y-105581300D02*
X77298700Y-80654000D01*
%TO.N,/UART_TRAN*%
X75391400Y-104042500D02*
X75391400Y-82240900D01*
X79586400Y-78110200D02*
X79759300Y-78110200D01*
X76883300Y-79650600D02*
X78046000Y-79650600D01*
X60960000Y-119380000D02*
X62230000Y-118110000D01*
X76295300Y-80640100D02*
X76295300Y-80238600D01*
X62230000Y-118110000D02*
X62230000Y-116421600D01*
X62230000Y-116421600D02*
X63081600Y-115570000D01*
X81328200Y-79679100D02*
X81950000Y-79679100D01*
X79759300Y-78110200D02*
X81328200Y-79679100D01*
X76295300Y-80238600D02*
X76883300Y-79650600D01*
X63863900Y-115570000D02*
X75391400Y-104042500D01*
X75391400Y-82240900D02*
X75278300Y-82127800D01*
X75278300Y-82127800D02*
X75278300Y-81657100D01*
X63081600Y-115570000D02*
X63863900Y-115570000D01*
X75278300Y-81657100D02*
X76295300Y-80640100D01*
X78046000Y-79650600D02*
X79586400Y-78110200D01*
%TO.N,/UART_REC*%
X78493200Y-106926800D02*
X63500000Y-121920000D01*
X79598800Y-89150600D02*
X79598800Y-97330400D01*
X79750400Y-79020300D02*
X79750400Y-88999000D01*
X79638900Y-78908800D02*
X79750400Y-79020300D01*
X78493200Y-98436000D02*
X78493200Y-106926800D01*
X79598800Y-97330400D02*
X78493200Y-98436000D01*
X79750400Y-88999000D02*
X79598800Y-89150600D01*
%TO.N,/WIFI_GPIO*%
X80443500Y-77279900D02*
X78811600Y-77279900D01*
X73034700Y-82907900D02*
X59317400Y-96625200D01*
X78811600Y-77279900D02*
X77244300Y-78847200D01*
X80647400Y-77483800D02*
X80443500Y-77279900D01*
X73526900Y-82555400D02*
X73174400Y-82907900D01*
X75491900Y-80307500D02*
X73526900Y-82272500D01*
X73526900Y-82272500D02*
X73526900Y-82555400D01*
X73174400Y-82907900D02*
X73034700Y-82907900D01*
X77244300Y-78847200D02*
X76550700Y-78847200D01*
X59317400Y-96625200D02*
X59317400Y-120277400D01*
X76550700Y-78847200D02*
X75491900Y-79906000D01*
X75491900Y-79906000D02*
X75491900Y-80307500D01*
X59317400Y-120277400D02*
X60960000Y-121920000D01*
%TO.N,Net-(D1-A)*%
X48361600Y-61343500D02*
X48361600Y-34013600D01*
X35712100Y-73993000D02*
X48361600Y-61343500D01*
%TO.N,/RESET*%
X116840000Y-72390000D02*
X115688300Y-73541700D01*
X115688300Y-73541700D02*
X115688300Y-83946400D01*
X115688300Y-83946400D02*
X115921500Y-84179600D01*
%TO.N,/SWCLK*%
X87202700Y-66452700D02*
X88022200Y-67272200D01*
X88022200Y-67272200D02*
X88022200Y-72861500D01*
%TO.N,/SWO*%
X94095900Y-61156900D02*
X94095900Y-74070400D01*
X88706700Y-55767700D02*
X94095900Y-61156900D01*
%TO.N,Net-(F1-Pad2)*%
X39172500Y-29058600D02*
X38465600Y-29058600D01*
X40598700Y-30484800D02*
X39172500Y-29058600D01*
%TO.N,Net-(U2-VCAP_2)*%
X84183000Y-71505100D02*
X84183000Y-63220800D01*
X84183000Y-63220800D02*
X82718200Y-61756000D01*
X84072800Y-71615300D02*
X84183000Y-71505100D01*
%TO.N,/PA3*%
X90942100Y-103642100D02*
X90942100Y-89993600D01*
X106680000Y-119380000D02*
X90942100Y-103642100D01*
%TD*%
%TA.AperFunction,Conductor*%
%TO.N,GND*%
G36*
X78581642Y-73942285D02*
G01*
X78627397Y-73995089D01*
X78637341Y-74064247D01*
X78608316Y-74127803D01*
X78602284Y-74134281D01*
X71849714Y-80886849D01*
X71788391Y-80920334D01*
X71718699Y-80915350D01*
X71662766Y-80873478D01*
X71638349Y-80808014D01*
X71642258Y-80767077D01*
X71665201Y-80681457D01*
X71665201Y-80523342D01*
X71665201Y-80515747D01*
X71665200Y-80515729D01*
X71665200Y-80334497D01*
X71684885Y-80267458D01*
X71701519Y-80246816D01*
X73049177Y-78899158D01*
X74513562Y-77434772D01*
X74574883Y-77401289D01*
X74577050Y-77400838D01*
X74634985Y-77389313D01*
X74732397Y-77369937D01*
X74878079Y-77309594D01*
X75009189Y-77221989D01*
X75120689Y-77110489D01*
X75208294Y-76979379D01*
X75268637Y-76833697D01*
X75299400Y-76679042D01*
X75299400Y-76521358D01*
X75299400Y-76521355D01*
X75299399Y-76521353D01*
X75295368Y-76501089D01*
X75268637Y-76366703D01*
X75250032Y-76321786D01*
X75208297Y-76221027D01*
X75208290Y-76221014D01*
X75120689Y-76089911D01*
X75120686Y-76089907D01*
X75009192Y-75978413D01*
X75009188Y-75978410D01*
X74878085Y-75890809D01*
X74878072Y-75890802D01*
X74732401Y-75830464D01*
X74732389Y-75830461D01*
X74577745Y-75799700D01*
X74577742Y-75799700D01*
X74420058Y-75799700D01*
X74420055Y-75799700D01*
X74265410Y-75830461D01*
X74265398Y-75830464D01*
X74119727Y-75890802D01*
X74119714Y-75890809D01*
X73988611Y-75978410D01*
X73988607Y-75978413D01*
X73877113Y-76089907D01*
X73877110Y-76089911D01*
X73789509Y-76221014D01*
X73789502Y-76221027D01*
X73729164Y-76366698D01*
X73729161Y-76366708D01*
X73698261Y-76522050D01*
X73665876Y-76583961D01*
X73664325Y-76585539D01*
X70584181Y-79665682D01*
X70584180Y-79665684D01*
X70536807Y-79747737D01*
X70505123Y-79802615D01*
X70464199Y-79955343D01*
X70464199Y-79955345D01*
X70464199Y-80123446D01*
X70464200Y-80123459D01*
X70464200Y-80302302D01*
X70444515Y-80369341D01*
X70427881Y-80389983D01*
X60072071Y-90745792D01*
X60010748Y-90779277D01*
X59941056Y-90774293D01*
X59916088Y-90759995D01*
X59915354Y-90761095D01*
X59779185Y-90670109D01*
X59779172Y-90670102D01*
X59633501Y-90609764D01*
X59633489Y-90609761D01*
X59478845Y-90579000D01*
X59478842Y-90579000D01*
X59321158Y-90579000D01*
X59321155Y-90579000D01*
X59166510Y-90609761D01*
X59166498Y-90609764D01*
X59020827Y-90670102D01*
X59020814Y-90670109D01*
X58889711Y-90757710D01*
X58889707Y-90757713D01*
X58778213Y-90869207D01*
X58778210Y-90869211D01*
X58690609Y-91000314D01*
X58690602Y-91000327D01*
X58630264Y-91145998D01*
X58630261Y-91146008D01*
X58599362Y-91301348D01*
X58566977Y-91363259D01*
X58565426Y-91364837D01*
X54458286Y-95471978D01*
X54346481Y-95583782D01*
X54346479Y-95583785D01*
X54300631Y-95663198D01*
X54300630Y-95663199D01*
X54267423Y-95720714D01*
X54267423Y-95720715D01*
X54226499Y-95873443D01*
X54226499Y-95873445D01*
X54226499Y-96041546D01*
X54226500Y-96041559D01*
X54226500Y-111134234D01*
X54206815Y-111201273D01*
X54205602Y-111203125D01*
X54117609Y-111334814D01*
X54117602Y-111334827D01*
X54057264Y-111480498D01*
X54057261Y-111480510D01*
X54026500Y-111635153D01*
X54026500Y-111792846D01*
X54057261Y-111947489D01*
X54057264Y-111947501D01*
X54117602Y-112093172D01*
X54117609Y-112093185D01*
X54205210Y-112224288D01*
X54205213Y-112224292D01*
X54267511Y-112286590D01*
X54300996Y-112347913D01*
X54296012Y-112417605D01*
X54267511Y-112461952D01*
X52597981Y-114131483D01*
X52536658Y-114164968D01*
X52466966Y-114159984D01*
X52411033Y-114118112D01*
X52386616Y-114052648D01*
X52386300Y-114043802D01*
X52386300Y-96563797D01*
X52405985Y-96496758D01*
X52422619Y-96476116D01*
X62310201Y-86588534D01*
X72364162Y-76534572D01*
X72425483Y-76501089D01*
X72427650Y-76500638D01*
X72485585Y-76489113D01*
X72582997Y-76469737D01*
X72728679Y-76409394D01*
X72859789Y-76321789D01*
X72971289Y-76210289D01*
X73058894Y-76079179D01*
X73119237Y-75933497D01*
X73150000Y-75778842D01*
X73150000Y-75621158D01*
X73150000Y-75621155D01*
X73149999Y-75621153D01*
X73129711Y-75519158D01*
X73119237Y-75466503D01*
X73111744Y-75448412D01*
X73058897Y-75320827D01*
X73058895Y-75320823D01*
X73058894Y-75320821D01*
X72971289Y-75189711D01*
X72971288Y-75189710D01*
X72968759Y-75185925D01*
X72947881Y-75119248D01*
X72966365Y-75051868D01*
X72984175Y-75029358D01*
X74054616Y-73958919D01*
X74115939Y-73925434D01*
X74142297Y-73922600D01*
X78514603Y-73922600D01*
X78581642Y-73942285D01*
G37*
%TD.AperFunction*%
%TA.AperFunction,Conductor*%
G36*
X37750899Y-28460185D02*
G01*
X37796654Y-28512989D01*
X37806598Y-28582147D01*
X37786962Y-28633391D01*
X37756209Y-28679415D01*
X37756202Y-28679427D01*
X37695864Y-28825098D01*
X37695861Y-28825110D01*
X37665100Y-28979753D01*
X37665100Y-29137446D01*
X37695861Y-29292089D01*
X37695864Y-29292101D01*
X37756202Y-29437772D01*
X37756209Y-29437785D01*
X37843810Y-29568888D01*
X37843813Y-29568892D01*
X37955307Y-29680386D01*
X37955311Y-29680389D01*
X38086414Y-29767990D01*
X38086427Y-29767997D01*
X38232098Y-29828335D01*
X38232103Y-29828337D01*
X38386753Y-29859099D01*
X38386756Y-29859100D01*
X38386758Y-29859100D01*
X38544444Y-29859100D01*
X38544445Y-29859099D01*
X38699097Y-29828337D01*
X38844779Y-29767994D01*
X38872790Y-29749276D01*
X38939464Y-29728398D01*
X39006845Y-29746881D01*
X39029362Y-29764697D01*
X39764125Y-30499460D01*
X39797610Y-30560783D01*
X39798061Y-30562949D01*
X39828961Y-30718291D01*
X39828964Y-30718301D01*
X39889302Y-30863972D01*
X39889309Y-30863985D01*
X39976910Y-30995088D01*
X39976913Y-30995092D01*
X40088407Y-31106586D01*
X40088411Y-31106589D01*
X40219514Y-31194190D01*
X40219527Y-31194197D01*
X40365198Y-31254535D01*
X40365203Y-31254537D01*
X40519853Y-31285299D01*
X40519856Y-31285300D01*
X40519858Y-31285300D01*
X40677544Y-31285300D01*
X40677545Y-31285299D01*
X40832197Y-31254537D01*
X40977879Y-31194194D01*
X41108989Y-31106589D01*
X41220489Y-30995089D01*
X41308094Y-30863979D01*
X41368437Y-30718297D01*
X41399200Y-30563642D01*
X41399200Y-30405958D01*
X41399200Y-30405955D01*
X41399199Y-30405953D01*
X41368438Y-30251310D01*
X41368437Y-30251303D01*
X41368435Y-30251298D01*
X41308097Y-30105627D01*
X41308090Y-30105614D01*
X41220489Y-29974511D01*
X41220486Y-29974507D01*
X41108992Y-29863013D01*
X41108988Y-29863010D01*
X40977885Y-29775409D01*
X40977872Y-29775402D01*
X40832201Y-29715064D01*
X40832191Y-29715061D01*
X40676849Y-29684161D01*
X40614938Y-29651776D01*
X40613360Y-29650225D01*
X39660089Y-28696954D01*
X39653020Y-28689885D01*
X39653020Y-28689884D01*
X39615316Y-28652180D01*
X39581831Y-28590857D01*
X39584502Y-28553519D01*
X39586816Y-28521166D01*
X39628688Y-28465233D01*
X39628688Y-28465232D01*
X39628689Y-28465232D01*
X39669736Y-28449922D01*
X39694152Y-28440816D01*
X39702998Y-28440500D01*
X128915500Y-28440500D01*
X128982539Y-28460185D01*
X129028294Y-28512989D01*
X129039500Y-28564500D01*
X129039500Y-128915500D01*
X129019815Y-128982539D01*
X128967011Y-129028294D01*
X128915500Y-129039500D01*
X28564500Y-129039500D01*
X28497461Y-129019815D01*
X28451706Y-128967011D01*
X28440500Y-128915500D01*
X28440500Y-121027353D01*
X40610200Y-121027353D01*
X40610200Y-121185046D01*
X40640961Y-121339689D01*
X40640964Y-121339701D01*
X40701302Y-121485372D01*
X40701309Y-121485385D01*
X40788910Y-121616488D01*
X40788913Y-121616492D01*
X40900407Y-121727986D01*
X40900411Y-121727989D01*
X41031514Y-121815590D01*
X41031527Y-121815597D01*
X41177198Y-121875935D01*
X41177203Y-121875937D01*
X41331853Y-121906699D01*
X41331856Y-121906700D01*
X41331858Y-121906700D01*
X41489544Y-121906700D01*
X41489545Y-121906699D01*
X41644197Y-121875937D01*
X41789879Y-121815594D01*
X41920989Y-121727989D01*
X42032489Y-121616489D01*
X42120094Y-121485379D01*
X42180437Y-121339697D01*
X42211200Y-121185042D01*
X42211200Y-121027358D01*
X42211200Y-121027355D01*
X42211199Y-121027353D01*
X42201141Y-120976789D01*
X42180437Y-120872703D01*
X42177366Y-120865288D01*
X42120097Y-120727027D01*
X42120090Y-120727014D01*
X42032098Y-120595325D01*
X42011220Y-120528647D01*
X42011200Y-120526434D01*
X42011200Y-106053697D01*
X42030885Y-105986658D01*
X42047519Y-105966016D01*
X50973619Y-97039916D01*
X51034942Y-97006431D01*
X51104634Y-97011415D01*
X51160567Y-97053287D01*
X51184984Y-97118751D01*
X51185300Y-97127597D01*
X51185300Y-114249134D01*
X51165615Y-114316173D01*
X51164402Y-114318025D01*
X51076409Y-114449714D01*
X51076402Y-114449727D01*
X51016064Y-114595398D01*
X51016061Y-114595410D01*
X50985300Y-114750053D01*
X50985300Y-114907746D01*
X51016061Y-115062389D01*
X51016064Y-115062401D01*
X51076402Y-115208072D01*
X51076409Y-115208085D01*
X51164010Y-115339188D01*
X51164013Y-115339192D01*
X51189461Y-115364640D01*
X51222946Y-115425963D01*
X51217962Y-115495655D01*
X51189461Y-115540002D01*
X50954439Y-115775025D01*
X50893116Y-115808510D01*
X50890950Y-115808961D01*
X50735608Y-115839861D01*
X50735598Y-115839864D01*
X50589927Y-115900202D01*
X50589914Y-115900209D01*
X50458811Y-115987810D01*
X50458807Y-115987813D01*
X50347313Y-116099307D01*
X50347310Y-116099311D01*
X50259709Y-116230414D01*
X50259702Y-116230427D01*
X50199364Y-116376098D01*
X50199361Y-116376110D01*
X50168600Y-116530753D01*
X50168600Y-116688446D01*
X50199361Y-116843089D01*
X50199364Y-116843101D01*
X50259702Y-116988772D01*
X50259709Y-116988785D01*
X50347310Y-117119888D01*
X50347313Y-117119892D01*
X50458806Y-117231385D01*
X50458809Y-117231387D01*
X50458811Y-117231389D01*
X50467676Y-117237312D01*
X50512481Y-117290923D01*
X50521190Y-117360248D01*
X50491036Y-117423276D01*
X50486467Y-117428096D01*
X49694139Y-118220425D01*
X49632816Y-118253910D01*
X49630650Y-118254361D01*
X49475308Y-118285261D01*
X49475298Y-118285264D01*
X49329627Y-118345602D01*
X49329614Y-118345609D01*
X49198511Y-118433210D01*
X49198507Y-118433213D01*
X49087013Y-118544707D01*
X49087010Y-118544711D01*
X48999409Y-118675814D01*
X48999402Y-118675827D01*
X48939064Y-118821498D01*
X48939061Y-118821510D01*
X48908300Y-118976153D01*
X48908300Y-119133846D01*
X48939061Y-119288489D01*
X48939064Y-119288501D01*
X48999402Y-119434172D01*
X48999409Y-119434185D01*
X49049390Y-119508986D01*
X49070268Y-119575663D01*
X49051784Y-119643044D01*
X49015180Y-119680978D01*
X48937013Y-119733208D01*
X48937007Y-119733213D01*
X48825513Y-119844707D01*
X48825510Y-119844711D01*
X48737909Y-119975814D01*
X48737902Y-119975827D01*
X48677564Y-120121498D01*
X48677561Y-120121510D01*
X48646800Y-120276153D01*
X48646800Y-120433846D01*
X48677561Y-120588489D01*
X48677564Y-120588501D01*
X48737902Y-120734172D01*
X48737909Y-120734185D01*
X48825510Y-120865288D01*
X48825513Y-120865292D01*
X48937007Y-120976786D01*
X48937011Y-120976789D01*
X49068114Y-121064390D01*
X49068127Y-121064397D01*
X49213798Y-121124735D01*
X49213803Y-121124737D01*
X49368453Y-121155499D01*
X49368456Y-121155500D01*
X49368458Y-121155500D01*
X49526144Y-121155500D01*
X49526145Y-121155499D01*
X49680797Y-121124737D01*
X49826479Y-121064394D01*
X49957589Y-120976789D01*
X50069089Y-120865289D01*
X50156694Y-120734179D01*
X50159657Y-120727027D01*
X50171992Y-120697246D01*
X50217037Y-120588497D01*
X50236413Y-120491085D01*
X50247938Y-120433150D01*
X50280323Y-120371239D01*
X50281818Y-120369716D01*
X58505219Y-112146316D01*
X58566542Y-112112831D01*
X58636234Y-112117815D01*
X58692167Y-112159687D01*
X58716584Y-112225151D01*
X58716900Y-112233997D01*
X58716900Y-120190730D01*
X58716899Y-120190748D01*
X58716899Y-120356454D01*
X58716898Y-120356454D01*
X58716899Y-120356457D01*
X58757823Y-120509185D01*
X58757824Y-120509187D01*
X58757823Y-120509187D01*
X58769688Y-120529736D01*
X58769689Y-120529738D01*
X58836875Y-120646109D01*
X58836881Y-120646117D01*
X58955749Y-120764985D01*
X58955755Y-120764990D01*
X59626241Y-121435476D01*
X59659726Y-121496799D01*
X59656492Y-121561473D01*
X59642753Y-121603757D01*
X59609500Y-121813713D01*
X59609500Y-122026286D01*
X59642753Y-122236239D01*
X59708444Y-122438414D01*
X59804951Y-122627820D01*
X59929890Y-122799786D01*
X60080213Y-122950109D01*
X60252179Y-123075048D01*
X60252181Y-123075049D01*
X60252184Y-123075051D01*
X60441588Y-123171557D01*
X60643757Y-123237246D01*
X60853713Y-123270500D01*
X60853714Y-123270500D01*
X61066286Y-123270500D01*
X61066287Y-123270500D01*
X61276243Y-123237246D01*
X61478412Y-123171557D01*
X61667816Y-123075051D01*
X61689789Y-123059086D01*
X61839786Y-122950109D01*
X61839788Y-122950106D01*
X61839792Y-122950104D01*
X61990104Y-122799792D01*
X61990106Y-122799788D01*
X61990109Y-122799786D01*
X62115048Y-122627820D01*
X62115047Y-122627820D01*
X62115051Y-122627816D01*
X62119514Y-122619054D01*
X62167488Y-122568259D01*
X62235308Y-122551463D01*
X62301444Y-122573999D01*
X62340486Y-122619056D01*
X62344951Y-122627820D01*
X62469890Y-122799786D01*
X62620213Y-122950109D01*
X62792179Y-123075048D01*
X62792181Y-123075049D01*
X62792184Y-123075051D01*
X62981588Y-123171557D01*
X63183757Y-123237246D01*
X63393713Y-123270500D01*
X63393714Y-123270500D01*
X63606286Y-123270500D01*
X63606287Y-123270500D01*
X63816243Y-123237246D01*
X64018412Y-123171557D01*
X64207816Y-123075051D01*
X64229789Y-123059086D01*
X64379786Y-122950109D01*
X64379788Y-122950106D01*
X64379792Y-122950104D01*
X64530104Y-122799792D01*
X64530106Y-122799788D01*
X64530109Y-122799786D01*
X64655048Y-122627820D01*
X64655047Y-122627820D01*
X64655051Y-122627816D01*
X64751557Y-122438412D01*
X64817246Y-122236243D01*
X64850500Y-122026287D01*
X64850500Y-121813713D01*
X64817246Y-121603757D01*
X64803506Y-121561473D01*
X64801512Y-121491635D01*
X64833755Y-121435478D01*
X78973720Y-107295516D01*
X79052777Y-107158584D01*
X79093701Y-107005857D01*
X79093701Y-106847742D01*
X79093701Y-106840147D01*
X79093700Y-106840129D01*
X79093700Y-101479424D01*
X79113385Y-101412385D01*
X79166189Y-101366630D01*
X79235347Y-101356686D01*
X79298903Y-101385711D01*
X79332261Y-101431972D01*
X79391202Y-101574272D01*
X79391209Y-101574285D01*
X79478810Y-101705388D01*
X79478813Y-101705392D01*
X79590307Y-101816886D01*
X79590311Y-101816889D01*
X79721414Y-101904490D01*
X79721427Y-101904497D01*
X79867098Y-101964835D01*
X79867103Y-101964837D01*
X80021758Y-101995600D01*
X80021763Y-101995600D01*
X80027818Y-101996197D01*
X80027691Y-101997476D01*
X80088339Y-102015285D01*
X80134094Y-102068089D01*
X80145300Y-102119600D01*
X80145300Y-116219130D01*
X80145299Y-116219148D01*
X80145299Y-116384854D01*
X80145298Y-116384854D01*
X80186223Y-116537585D01*
X80215158Y-116587700D01*
X80215159Y-116587704D01*
X80215160Y-116587704D01*
X80265279Y-116674514D01*
X80265281Y-116674517D01*
X80384149Y-116793385D01*
X80384155Y-116793390D01*
X82486241Y-118895476D01*
X82519726Y-118956799D01*
X82516492Y-119021473D01*
X82502753Y-119063757D01*
X82469500Y-119273713D01*
X82469500Y-119486286D01*
X82490131Y-119616549D01*
X82502754Y-119696243D01*
X82550994Y-119844711D01*
X82568444Y-119898414D01*
X82664951Y-120087820D01*
X82789890Y-120259786D01*
X82940213Y-120410109D01*
X83112179Y-120535048D01*
X83112181Y-120535049D01*
X83112184Y-120535051D01*
X83301588Y-120631557D01*
X83503757Y-120697246D01*
X83713713Y-120730500D01*
X83713714Y-120730500D01*
X83926286Y-120730500D01*
X83926287Y-120730500D01*
X84136243Y-120697246D01*
X84338412Y-120631557D01*
X84527816Y-120535051D01*
X84667114Y-120433846D01*
X84699786Y-120410109D01*
X84699788Y-120410106D01*
X84699792Y-120410104D01*
X84850104Y-120259792D01*
X84850106Y-120259788D01*
X84850109Y-120259786D01*
X84975048Y-120087820D01*
X84975047Y-120087820D01*
X84975051Y-120087816D01*
X85071557Y-119898412D01*
X85137246Y-119696243D01*
X85170500Y-119486287D01*
X85170500Y-119273713D01*
X85137246Y-119063757D01*
X85071557Y-118861588D01*
X84975051Y-118672184D01*
X84975049Y-118672181D01*
X84975048Y-118672179D01*
X84850109Y-118500213D01*
X84699786Y-118349890D01*
X84527820Y-118224951D01*
X84527115Y-118224591D01*
X84519054Y-118220485D01*
X84468259Y-118172512D01*
X84451463Y-118104692D01*
X84473999Y-118038556D01*
X84519054Y-117999515D01*
X84527816Y-117995051D01*
X84549789Y-117979086D01*
X84699786Y-117870109D01*
X84699788Y-117870106D01*
X84699792Y-117870104D01*
X84850104Y-117719792D01*
X84850106Y-117719788D01*
X84850109Y-117719786D01*
X84975048Y-117547820D01*
X84975047Y-117547820D01*
X84975051Y-117547816D01*
X85071557Y-117358412D01*
X85137246Y-117156243D01*
X85170500Y-116946287D01*
X85170500Y-116733713D01*
X85137246Y-116523757D01*
X85071557Y-116321588D01*
X84975051Y-116132184D01*
X84975049Y-116132181D01*
X84975048Y-116132179D01*
X84850109Y-115960213D01*
X84736181Y-115846285D01*
X84702696Y-115784962D01*
X84707680Y-115715270D01*
X84749552Y-115659337D01*
X84780529Y-115642422D01*
X84912086Y-115593354D01*
X84912093Y-115593350D01*
X85027187Y-115507190D01*
X85027190Y-115507187D01*
X85113350Y-115392093D01*
X85113354Y-115392086D01*
X85163596Y-115257379D01*
X85163598Y-115257372D01*
X85169999Y-115197844D01*
X85170000Y-115197827D01*
X85170000Y-114550000D01*
X84253012Y-114550000D01*
X84285925Y-114492993D01*
X84320000Y-114365826D01*
X84320000Y-114234174D01*
X84285925Y-114107007D01*
X84253012Y-114050000D01*
X85170000Y-114050000D01*
X85170000Y-113402172D01*
X85169999Y-113402155D01*
X85163598Y-113342627D01*
X85163596Y-113342620D01*
X85113354Y-113207913D01*
X85113350Y-113207906D01*
X85027190Y-113092812D01*
X85027187Y-113092809D01*
X84912093Y-113006649D01*
X84912086Y-113006645D01*
X84777379Y-112956403D01*
X84777372Y-112956401D01*
X84717844Y-112950000D01*
X84070000Y-112950000D01*
X84070000Y-113866988D01*
X84012993Y-113834075D01*
X83885826Y-113800000D01*
X83754174Y-113800000D01*
X83627007Y-113834075D01*
X83570000Y-113866988D01*
X83570000Y-112950000D01*
X82922155Y-112950000D01*
X82862627Y-112956401D01*
X82862620Y-112956403D01*
X82727913Y-113006645D01*
X82727906Y-113006649D01*
X82612812Y-113092809D01*
X82612809Y-113092812D01*
X82526649Y-113207906D01*
X82526645Y-113207913D01*
X82476403Y-113342620D01*
X82476401Y-113342627D01*
X82470000Y-113402155D01*
X82470000Y-114050000D01*
X83386988Y-114050000D01*
X83354075Y-114107007D01*
X83320000Y-114234174D01*
X83320000Y-114365826D01*
X83354075Y-114492993D01*
X83386988Y-114550000D01*
X82470000Y-114550000D01*
X82470000Y-115197844D01*
X82476401Y-115257372D01*
X82476403Y-115257379D01*
X82526645Y-115392086D01*
X82526649Y-115392093D01*
X82612809Y-115507187D01*
X82612812Y-115507190D01*
X82727906Y-115593350D01*
X82727913Y-115593354D01*
X82859470Y-115642422D01*
X82915404Y-115684293D01*
X82939821Y-115749758D01*
X82924969Y-115818031D01*
X82903819Y-115846285D01*
X82789889Y-115960215D01*
X82664951Y-116132179D01*
X82568444Y-116321585D01*
X82502753Y-116523760D01*
X82469500Y-116733713D01*
X82469500Y-116880903D01*
X82449815Y-116947942D01*
X82397011Y-116993697D01*
X82327853Y-117003641D01*
X82264297Y-116974616D01*
X82257819Y-116968584D01*
X81382619Y-116093384D01*
X81349134Y-116032061D01*
X81346300Y-116005703D01*
X81346300Y-92485165D01*
X81365985Y-92418126D01*
X81367198Y-92416274D01*
X81423474Y-92332052D01*
X81455194Y-92284579D01*
X81515537Y-92138897D01*
X81546300Y-91984242D01*
X81546300Y-91826558D01*
X81546300Y-91826555D01*
X81546299Y-91826553D01*
X81532313Y-91756243D01*
X81515537Y-91671903D01*
X81463506Y-91546287D01*
X81455197Y-91526227D01*
X81455190Y-91526214D01*
X81367589Y-91395111D01*
X81367586Y-91395107D01*
X81256092Y-91283613D01*
X81256088Y-91283610D01*
X81124985Y-91196009D01*
X81124972Y-91196002D01*
X80979301Y-91135664D01*
X80979289Y-91135661D01*
X80824646Y-91104900D01*
X80818582Y-91104303D01*
X80818708Y-91103023D01*
X80758061Y-91085215D01*
X80712306Y-91032411D01*
X80701100Y-90980900D01*
X80701100Y-89716796D01*
X80720785Y-89649757D01*
X80737415Y-89629119D01*
X81262906Y-89103627D01*
X81262911Y-89103624D01*
X81273114Y-89093420D01*
X81273116Y-89093420D01*
X81384920Y-88981616D01*
X81407251Y-88942937D01*
X81442090Y-88882595D01*
X81442091Y-88882592D01*
X81463976Y-88844687D01*
X81465086Y-88840546D01*
X81504901Y-88691957D01*
X81504901Y-88533843D01*
X81504901Y-88526248D01*
X81504900Y-88526230D01*
X81504900Y-86097565D01*
X81524585Y-86030526D01*
X81525798Y-86028674D01*
X81535703Y-86013851D01*
X81613794Y-85896979D01*
X81674137Y-85751297D01*
X81704900Y-85596642D01*
X81704900Y-85438958D01*
X81704900Y-85438955D01*
X81704899Y-85438953D01*
X81694576Y-85387057D01*
X81674137Y-85284303D01*
X81667245Y-85267664D01*
X81613797Y-85138627D01*
X81613790Y-85138614D01*
X81526189Y-85007511D01*
X81526186Y-85007507D01*
X81414692Y-84896013D01*
X81414688Y-84896010D01*
X81283585Y-84808409D01*
X81283572Y-84808402D01*
X81137901Y-84748064D01*
X81137889Y-84748061D01*
X80983245Y-84717300D01*
X80983242Y-84717300D01*
X80825558Y-84717300D01*
X80825555Y-84717300D01*
X80670910Y-84748061D01*
X80670898Y-84748064D01*
X80522352Y-84809593D01*
X80452882Y-84817062D01*
X80390403Y-84785786D01*
X80354751Y-84725697D01*
X80350900Y-84695032D01*
X80350900Y-79850397D01*
X80370585Y-79783358D01*
X80423389Y-79737603D01*
X80492547Y-79727659D01*
X80556103Y-79756684D01*
X80562575Y-79762711D01*
X80959484Y-80159620D01*
X80959486Y-80159621D01*
X80959490Y-80159624D01*
X81096409Y-80238673D01*
X81096416Y-80238677D01*
X81249143Y-80279601D01*
X81249145Y-80279601D01*
X81370236Y-80279601D01*
X81437275Y-80299286D01*
X81439127Y-80300499D01*
X81570814Y-80388490D01*
X81570827Y-80388497D01*
X81670041Y-80429592D01*
X81716503Y-80448837D01*
X81871153Y-80479599D01*
X81871156Y-80479600D01*
X81871158Y-80479600D01*
X82028844Y-80479600D01*
X82028845Y-80479599D01*
X82183497Y-80448837D01*
X82329179Y-80388494D01*
X82329185Y-80388490D01*
X82449909Y-80307825D01*
X82516586Y-80286947D01*
X82583967Y-80305431D01*
X82630657Y-80357410D01*
X82642800Y-80410927D01*
X82642800Y-103722534D01*
X82623115Y-103789573D01*
X82621902Y-103791425D01*
X82533909Y-103923114D01*
X82533905Y-103923123D01*
X82473564Y-104068798D01*
X82473561Y-104068810D01*
X82442800Y-104223453D01*
X82442800Y-104381146D01*
X82473561Y-104535789D01*
X82473564Y-104535801D01*
X82533902Y-104681472D01*
X82533909Y-104681485D01*
X82621510Y-104812588D01*
X82621513Y-104812592D01*
X82733007Y-104924086D01*
X82733011Y-104924089D01*
X82864114Y-105011690D01*
X82864127Y-105011697D01*
X83009798Y-105072035D01*
X83009803Y-105072037D01*
X83164453Y-105102799D01*
X83164456Y-105102800D01*
X83164458Y-105102800D01*
X83322144Y-105102800D01*
X83322145Y-105102799D01*
X83476797Y-105072037D01*
X83622479Y-105011694D01*
X83753589Y-104924089D01*
X83865089Y-104812589D01*
X83952694Y-104681479D01*
X84013037Y-104535797D01*
X84043800Y-104381142D01*
X84043800Y-104223458D01*
X84043800Y-104223455D01*
X84043799Y-104223453D01*
X84013038Y-104068810D01*
X84013037Y-104068803D01*
X83952694Y-103923121D01*
X83952693Y-103923120D01*
X83952690Y-103923114D01*
X83864698Y-103791425D01*
X83843820Y-103724747D01*
X83843800Y-103722534D01*
X83843800Y-93471800D01*
X83863485Y-93404761D01*
X83916289Y-93359006D01*
X83967800Y-93347800D01*
X84115444Y-93347800D01*
X84115445Y-93347799D01*
X84270097Y-93317037D01*
X84415779Y-93256694D01*
X84546889Y-93169089D01*
X84658389Y-93057589D01*
X84745994Y-92926479D01*
X84806337Y-92780797D01*
X84837100Y-92626142D01*
X84837100Y-92468458D01*
X84837100Y-92468455D01*
X84837099Y-92468453D01*
X84826720Y-92416274D01*
X84806337Y-92313803D01*
X84794229Y-92284572D01*
X84745997Y-92168127D01*
X84745990Y-92168114D01*
X84657998Y-92036425D01*
X84637120Y-91969747D01*
X84637100Y-91967534D01*
X84637100Y-90528653D01*
X85426400Y-90528653D01*
X85426400Y-90686346D01*
X85457161Y-90840989D01*
X85457164Y-90841001D01*
X85517502Y-90986672D01*
X85517509Y-90986685D01*
X85605502Y-91118374D01*
X85626380Y-91185051D01*
X85626400Y-91187265D01*
X85626400Y-110340230D01*
X85626399Y-110340248D01*
X85626399Y-110505954D01*
X85626398Y-110505954D01*
X85635046Y-110538228D01*
X85667323Y-110658685D01*
X85694712Y-110706124D01*
X85694712Y-110706125D01*
X85746375Y-110795609D01*
X85746381Y-110795617D01*
X85865249Y-110914485D01*
X85865255Y-110914490D01*
X93846241Y-118895476D01*
X93879726Y-118956799D01*
X93876492Y-119021473D01*
X93862753Y-119063757D01*
X93829500Y-119273713D01*
X93829500Y-119486286D01*
X93850131Y-119616549D01*
X93862754Y-119696243D01*
X93910994Y-119844711D01*
X93928444Y-119898414D01*
X94024951Y-120087820D01*
X94149890Y-120259786D01*
X94300213Y-120410109D01*
X94472179Y-120535048D01*
X94472181Y-120535049D01*
X94472184Y-120535051D01*
X94661588Y-120631557D01*
X94863757Y-120697246D01*
X95073713Y-120730500D01*
X95073714Y-120730500D01*
X95286286Y-120730500D01*
X95286287Y-120730500D01*
X95496243Y-120697246D01*
X95698412Y-120631557D01*
X95887816Y-120535051D01*
X96027114Y-120433846D01*
X96059786Y-120410109D01*
X96059788Y-120410106D01*
X96059792Y-120410104D01*
X96210104Y-120259792D01*
X96210106Y-120259788D01*
X96210109Y-120259786D01*
X96335048Y-120087820D01*
X96335047Y-120087820D01*
X96335051Y-120087816D01*
X96431557Y-119898412D01*
X96497246Y-119696243D01*
X96530500Y-119486287D01*
X96530500Y-119273713D01*
X96497246Y-119063757D01*
X96431557Y-118861588D01*
X96335051Y-118672184D01*
X96335049Y-118672181D01*
X96335048Y-118672179D01*
X96210109Y-118500213D01*
X96059786Y-118349890D01*
X95887820Y-118224951D01*
X95887115Y-118224591D01*
X95879054Y-118220485D01*
X95828259Y-118172512D01*
X95811463Y-118104692D01*
X95833999Y-118038556D01*
X95879054Y-117999515D01*
X95887816Y-117995051D01*
X95909789Y-117979086D01*
X96059786Y-117870109D01*
X96059788Y-117870106D01*
X96059792Y-117870104D01*
X96210104Y-117719792D01*
X96210106Y-117719788D01*
X96210109Y-117719786D01*
X96335048Y-117547820D01*
X96335047Y-117547820D01*
X96335051Y-117547816D01*
X96431557Y-117358412D01*
X96497246Y-117156243D01*
X96530500Y-116946287D01*
X96530500Y-116733713D01*
X96497246Y-116523757D01*
X96431557Y-116321588D01*
X96335051Y-116132184D01*
X96335049Y-116132181D01*
X96335048Y-116132179D01*
X96210109Y-115960213D01*
X96096181Y-115846285D01*
X96062696Y-115784962D01*
X96067680Y-115715270D01*
X96109552Y-115659337D01*
X96140529Y-115642422D01*
X96272086Y-115593354D01*
X96272093Y-115593350D01*
X96387187Y-115507190D01*
X96387190Y-115507187D01*
X96473350Y-115392093D01*
X96473354Y-115392086D01*
X96523596Y-115257379D01*
X96523598Y-115257372D01*
X96529999Y-115197844D01*
X96530000Y-115197827D01*
X96530000Y-114550000D01*
X95613012Y-114550000D01*
X95645925Y-114492993D01*
X95680000Y-114365826D01*
X95680000Y-114234174D01*
X95645925Y-114107007D01*
X95613012Y-114050000D01*
X96530000Y-114050000D01*
X96530000Y-113402172D01*
X96529999Y-113402155D01*
X96523598Y-113342627D01*
X96523596Y-113342620D01*
X96473354Y-113207913D01*
X96473350Y-113207906D01*
X96387190Y-113092812D01*
X96387187Y-113092809D01*
X96272093Y-113006649D01*
X96272086Y-113006645D01*
X96137379Y-112956403D01*
X96137372Y-112956401D01*
X96077844Y-112950000D01*
X95430000Y-112950000D01*
X95430000Y-113866988D01*
X95372993Y-113834075D01*
X95245826Y-113800000D01*
X95114174Y-113800000D01*
X94987007Y-113834075D01*
X94930000Y-113866988D01*
X94930000Y-112950000D01*
X94282155Y-112950000D01*
X94222627Y-112956401D01*
X94222620Y-112956403D01*
X94087913Y-113006645D01*
X94087906Y-113006649D01*
X93972812Y-113092809D01*
X93972809Y-113092812D01*
X93886649Y-113207906D01*
X93886645Y-113207913D01*
X93836403Y-113342620D01*
X93836401Y-113342627D01*
X93830000Y-113402155D01*
X93830000Y-114050000D01*
X94746988Y-114050000D01*
X94714075Y-114107007D01*
X94680000Y-114234174D01*
X94680000Y-114365826D01*
X94714075Y-114492993D01*
X94746988Y-114550000D01*
X93830000Y-114550000D01*
X93830000Y-115197844D01*
X93836401Y-115257372D01*
X93836403Y-115257379D01*
X93886645Y-115392086D01*
X93886649Y-115392093D01*
X93972809Y-115507187D01*
X93972812Y-115507190D01*
X94087906Y-115593350D01*
X94087913Y-115593354D01*
X94219470Y-115642422D01*
X94275404Y-115684293D01*
X94299821Y-115749758D01*
X94284969Y-115818031D01*
X94263819Y-115846285D01*
X94149889Y-115960215D01*
X94024951Y-116132179D01*
X93928444Y-116321585D01*
X93862753Y-116523760D01*
X93829500Y-116733713D01*
X93829500Y-116880903D01*
X93809815Y-116947942D01*
X93757011Y-116993697D01*
X93687853Y-117003641D01*
X93624297Y-116974616D01*
X93617819Y-116968584D01*
X86863719Y-110214484D01*
X86830234Y-110153161D01*
X86827400Y-110126803D01*
X86827400Y-91187265D01*
X86847085Y-91120226D01*
X86848298Y-91118374D01*
X86936290Y-90986685D01*
X86936290Y-90986684D01*
X86936294Y-90986679D01*
X86996637Y-90840997D01*
X87027400Y-90686342D01*
X87027400Y-90528658D01*
X87027400Y-90528655D01*
X87027399Y-90528653D01*
X87018319Y-90483004D01*
X86996637Y-90374003D01*
X86996635Y-90373998D01*
X86936297Y-90228327D01*
X86936290Y-90228314D01*
X86848689Y-90097211D01*
X86848686Y-90097207D01*
X86737192Y-89985713D01*
X86737188Y-89985710D01*
X86630994Y-89914753D01*
X90141600Y-89914753D01*
X90141600Y-90072446D01*
X90172361Y-90227089D01*
X90172364Y-90227101D01*
X90232702Y-90372772D01*
X90232709Y-90372785D01*
X90320702Y-90504474D01*
X90341580Y-90571151D01*
X90341600Y-90573365D01*
X90341600Y-103555430D01*
X90341599Y-103555448D01*
X90341599Y-103721154D01*
X90341598Y-103721154D01*
X90382523Y-103873884D01*
X90382524Y-103873888D01*
X90410949Y-103923122D01*
X90410950Y-103923122D01*
X90461577Y-104010812D01*
X90461581Y-104010817D01*
X90580449Y-104129685D01*
X90580455Y-104129690D01*
X105346241Y-118895477D01*
X105379726Y-118956800D01*
X105376491Y-119021475D01*
X105362755Y-119063748D01*
X105362754Y-119063755D01*
X105329500Y-119273713D01*
X105329500Y-119486286D01*
X105350131Y-119616549D01*
X105362754Y-119696243D01*
X105410994Y-119844711D01*
X105428444Y-119898414D01*
X105524951Y-120087820D01*
X105649890Y-120259786D01*
X105800213Y-120410109D01*
X105972179Y-120535048D01*
X105972181Y-120535049D01*
X105972184Y-120535051D01*
X106161588Y-120631557D01*
X106363757Y-120697246D01*
X106573713Y-120730500D01*
X106573714Y-120730500D01*
X106786286Y-120730500D01*
X106786287Y-120730500D01*
X106996243Y-120697246D01*
X107198412Y-120631557D01*
X107387816Y-120535051D01*
X107527114Y-120433846D01*
X107559786Y-120410109D01*
X107559788Y-120410106D01*
X107559792Y-120410104D01*
X107710104Y-120259792D01*
X107710106Y-120259788D01*
X107710109Y-120259786D01*
X107835048Y-120087820D01*
X107835047Y-120087820D01*
X107835051Y-120087816D01*
X107931557Y-119898412D01*
X107997246Y-119696243D01*
X108030500Y-119486287D01*
X108030500Y-119273713D01*
X107997246Y-119063757D01*
X107931557Y-118861588D01*
X107835051Y-118672184D01*
X107835049Y-118672181D01*
X107835048Y-118672179D01*
X107710109Y-118500213D01*
X107559786Y-118349890D01*
X107387820Y-118224951D01*
X107387115Y-118224591D01*
X107379054Y-118220485D01*
X107328259Y-118172512D01*
X107311463Y-118104692D01*
X107333999Y-118038556D01*
X107379054Y-117999515D01*
X107387816Y-117995051D01*
X107409789Y-117979086D01*
X107559786Y-117870109D01*
X107559788Y-117870106D01*
X107559792Y-117870104D01*
X107710104Y-117719792D01*
X107710106Y-117719788D01*
X107710109Y-117719786D01*
X107835048Y-117547820D01*
X107835047Y-117547820D01*
X107835051Y-117547816D01*
X107931557Y-117358412D01*
X107997246Y-117156243D01*
X108030500Y-116946287D01*
X108030500Y-116733713D01*
X107997246Y-116523757D01*
X107931557Y-116321588D01*
X107835051Y-116132184D01*
X107835049Y-116132181D01*
X107835048Y-116132179D01*
X107710109Y-115960213D01*
X107596181Y-115846285D01*
X107562696Y-115784962D01*
X107567680Y-115715270D01*
X107609552Y-115659337D01*
X107640529Y-115642422D01*
X107772086Y-115593354D01*
X107772093Y-115593350D01*
X107887187Y-115507190D01*
X107887190Y-115507187D01*
X107973350Y-115392093D01*
X107973354Y-115392086D01*
X108023596Y-115257379D01*
X108023598Y-115257372D01*
X108029999Y-115197844D01*
X108030000Y-115197827D01*
X108030000Y-114550000D01*
X107113012Y-114550000D01*
X107145925Y-114492993D01*
X107180000Y-114365826D01*
X107180000Y-114234174D01*
X107145925Y-114107007D01*
X107113012Y-114050000D01*
X108030000Y-114050000D01*
X108030000Y-113402172D01*
X108029999Y-113402155D01*
X108023598Y-113342627D01*
X108023596Y-113342620D01*
X107973354Y-113207913D01*
X107973350Y-113207906D01*
X107887190Y-113092812D01*
X107887187Y-113092809D01*
X107772093Y-113006649D01*
X107772086Y-113006645D01*
X107637379Y-112956403D01*
X107637372Y-112956401D01*
X107577844Y-112950000D01*
X106930000Y-112950000D01*
X106930000Y-113866988D01*
X106872993Y-113834075D01*
X106745826Y-113800000D01*
X106614174Y-113800000D01*
X106487007Y-113834075D01*
X106430000Y-113866988D01*
X106430000Y-112950000D01*
X105782155Y-112950000D01*
X105722627Y-112956401D01*
X105722620Y-112956403D01*
X105587913Y-113006645D01*
X105587906Y-113006649D01*
X105472812Y-113092809D01*
X105472809Y-113092812D01*
X105386649Y-113207906D01*
X105386645Y-113207913D01*
X105336403Y-113342620D01*
X105336401Y-113342627D01*
X105330000Y-113402155D01*
X105330000Y-114050000D01*
X106246988Y-114050000D01*
X106214075Y-114107007D01*
X106180000Y-114234174D01*
X106180000Y-114365826D01*
X106214075Y-114492993D01*
X106246988Y-114550000D01*
X105330000Y-114550000D01*
X105330000Y-115197844D01*
X105336401Y-115257372D01*
X105336403Y-115257379D01*
X105386645Y-115392086D01*
X105386649Y-115392093D01*
X105472809Y-115507187D01*
X105472812Y-115507190D01*
X105587906Y-115593350D01*
X105587913Y-115593354D01*
X105719470Y-115642422D01*
X105775404Y-115684293D01*
X105799821Y-115749758D01*
X105784969Y-115818031D01*
X105763819Y-115846285D01*
X105649889Y-115960215D01*
X105524951Y-116132179D01*
X105428444Y-116321585D01*
X105362753Y-116523760D01*
X105329500Y-116733713D01*
X105329500Y-116880902D01*
X105309815Y-116947941D01*
X105257011Y-116993696D01*
X105187853Y-117003640D01*
X105124297Y-116974615D01*
X105117819Y-116968583D01*
X91578919Y-103429683D01*
X91545434Y-103368360D01*
X91542600Y-103342002D01*
X91542600Y-90573365D01*
X91562285Y-90506326D01*
X91563498Y-90504474D01*
X91581645Y-90477316D01*
X91651494Y-90372779D01*
X91711837Y-90227097D01*
X91742600Y-90072442D01*
X91742600Y-89914758D01*
X91742600Y-89914755D01*
X91742599Y-89914753D01*
X91727285Y-89837764D01*
X91711837Y-89760103D01*
X91684498Y-89694100D01*
X91651497Y-89614427D01*
X91651490Y-89614414D01*
X91563889Y-89483311D01*
X91563886Y-89483307D01*
X91452392Y-89371813D01*
X91452388Y-89371810D01*
X91321285Y-89284209D01*
X91321272Y-89284202D01*
X91175601Y-89223864D01*
X91175589Y-89223861D01*
X91020945Y-89193100D01*
X91020942Y-89193100D01*
X90863258Y-89193100D01*
X90863255Y-89193100D01*
X90708610Y-89223861D01*
X90708598Y-89223864D01*
X90562927Y-89284202D01*
X90562914Y-89284209D01*
X90431811Y-89371810D01*
X90431807Y-89371813D01*
X90320313Y-89483307D01*
X90320310Y-89483311D01*
X90232709Y-89614414D01*
X90232702Y-89614427D01*
X90172364Y-89760098D01*
X90172361Y-89760110D01*
X90141600Y-89914753D01*
X86630994Y-89914753D01*
X86606085Y-89898109D01*
X86606072Y-89898102D01*
X86460401Y-89837764D01*
X86460389Y-89837761D01*
X86305745Y-89807000D01*
X86305742Y-89807000D01*
X86148058Y-89807000D01*
X86148055Y-89807000D01*
X85993410Y-89837761D01*
X85993398Y-89837764D01*
X85847727Y-89898102D01*
X85847714Y-89898109D01*
X85716611Y-89985710D01*
X85716607Y-89985713D01*
X85605113Y-90097207D01*
X85605110Y-90097211D01*
X85517509Y-90228314D01*
X85517502Y-90228327D01*
X85457164Y-90373998D01*
X85457161Y-90374010D01*
X85426400Y-90528653D01*
X84637100Y-90528653D01*
X84637100Y-88264897D01*
X84656785Y-88197858D01*
X84673419Y-88177216D01*
X86795919Y-86054716D01*
X86857242Y-86021231D01*
X86926934Y-86026215D01*
X86982867Y-86068087D01*
X87007284Y-86133551D01*
X87007600Y-86142397D01*
X87007600Y-87593434D01*
X86987915Y-87660473D01*
X86986702Y-87662325D01*
X86898709Y-87794014D01*
X86898702Y-87794027D01*
X86838364Y-87939698D01*
X86838361Y-87939710D01*
X86807600Y-88094353D01*
X86807600Y-88252046D01*
X86838361Y-88406689D01*
X86838364Y-88406701D01*
X86898702Y-88552372D01*
X86898709Y-88552385D01*
X86986310Y-88683488D01*
X86986313Y-88683492D01*
X87097807Y-88794986D01*
X87097811Y-88794989D01*
X87228914Y-88882590D01*
X87228927Y-88882597D01*
X87374598Y-88942935D01*
X87374603Y-88942937D01*
X87519455Y-88971750D01*
X87529253Y-88973699D01*
X87529256Y-88973700D01*
X87529258Y-88973700D01*
X87686944Y-88973700D01*
X87686945Y-88973699D01*
X87841597Y-88942937D01*
X87987279Y-88882594D01*
X87987284Y-88882590D01*
X87987287Y-88882589D01*
X88050208Y-88840546D01*
X88116885Y-88819667D01*
X88184266Y-88838151D01*
X88230956Y-88890129D01*
X88243100Y-88943647D01*
X88243100Y-88972446D01*
X88273861Y-89127089D01*
X88273864Y-89127101D01*
X88334202Y-89272772D01*
X88334209Y-89272785D01*
X88421810Y-89403888D01*
X88421813Y-89403892D01*
X88533307Y-89515386D01*
X88533311Y-89515389D01*
X88664414Y-89602990D01*
X88664427Y-89602997D01*
X88810098Y-89663335D01*
X88810103Y-89663337D01*
X88964753Y-89694099D01*
X88964756Y-89694100D01*
X88964758Y-89694100D01*
X89122444Y-89694100D01*
X89122445Y-89694099D01*
X89277097Y-89663337D01*
X89395192Y-89614421D01*
X89422772Y-89602997D01*
X89422772Y-89602996D01*
X89422779Y-89602994D01*
X89553889Y-89515389D01*
X89665389Y-89403889D01*
X89752994Y-89272779D01*
X89813337Y-89127097D01*
X89837376Y-89006246D01*
X89844238Y-88971750D01*
X89876623Y-88909839D01*
X89878118Y-88908316D01*
X94376419Y-84410016D01*
X94437742Y-84376531D01*
X94507434Y-84381515D01*
X94563367Y-84423387D01*
X94587784Y-84488851D01*
X94588100Y-84497697D01*
X94588100Y-90021930D01*
X94588099Y-90021948D01*
X94588099Y-90187654D01*
X94588098Y-90187654D01*
X94629023Y-90340386D01*
X94642898Y-90364416D01*
X94642899Y-90364421D01*
X94642901Y-90364421D01*
X94708079Y-90477314D01*
X94708081Y-90477317D01*
X94826949Y-90596185D01*
X94826955Y-90596190D01*
X97726241Y-93495476D01*
X97759726Y-93556799D01*
X97756492Y-93621473D01*
X97742753Y-93663757D01*
X97709500Y-93873713D01*
X97709500Y-94086287D01*
X97742754Y-94296243D01*
X97805623Y-94489734D01*
X97808444Y-94498414D01*
X97904951Y-94687820D01*
X98029890Y-94859786D01*
X98180213Y-95010109D01*
X98352179Y-95135048D01*
X98352181Y-95135049D01*
X98352184Y-95135051D01*
X98541588Y-95231557D01*
X98743757Y-95297246D01*
X98953713Y-95330500D01*
X98953714Y-95330500D01*
X99166286Y-95330500D01*
X99166287Y-95330500D01*
X99376243Y-95297246D01*
X99578412Y-95231557D01*
X99767816Y-95135051D01*
X99789789Y-95119086D01*
X99939786Y-95010109D01*
X99939788Y-95010106D01*
X99939792Y-95010104D01*
X100090104Y-94859792D01*
X100090106Y-94859788D01*
X100090109Y-94859786D01*
X100215050Y-94687817D01*
X100215051Y-94687816D01*
X100281539Y-94557324D01*
X100329512Y-94506530D01*
X100397333Y-94489734D01*
X100463468Y-94512271D01*
X100479704Y-94525939D01*
X114813381Y-108859616D01*
X114846866Y-108920939D01*
X114849700Y-108947297D01*
X114849700Y-117903530D01*
X114849699Y-117903548D01*
X114849699Y-118069254D01*
X114849698Y-118069254D01*
X114849699Y-118069257D01*
X114890623Y-118221985D01*
X114909316Y-118254361D01*
X114909395Y-118254498D01*
X114909395Y-118254501D01*
X114909397Y-118254501D01*
X114969679Y-118358914D01*
X114969681Y-118358917D01*
X115088549Y-118477785D01*
X115088555Y-118477790D01*
X115506241Y-118895476D01*
X115539726Y-118956799D01*
X115536492Y-119021473D01*
X115522753Y-119063757D01*
X115489500Y-119273713D01*
X115489500Y-119486286D01*
X115510131Y-119616549D01*
X115522754Y-119696243D01*
X115570994Y-119844711D01*
X115588444Y-119898414D01*
X115684951Y-120087820D01*
X115809890Y-120259786D01*
X115960213Y-120410109D01*
X116132179Y-120535048D01*
X116132181Y-120535049D01*
X116132184Y-120535051D01*
X116321588Y-120631557D01*
X116523757Y-120697246D01*
X116733713Y-120730500D01*
X116733714Y-120730500D01*
X116946286Y-120730500D01*
X116946287Y-120730500D01*
X117156243Y-120697246D01*
X117358412Y-120631557D01*
X117547816Y-120535051D01*
X117687114Y-120433846D01*
X117719786Y-120410109D01*
X117719788Y-120410106D01*
X117719792Y-120410104D01*
X117870104Y-120259792D01*
X117870106Y-120259788D01*
X117870109Y-120259786D01*
X117995048Y-120087820D01*
X117995047Y-120087820D01*
X117995051Y-120087816D01*
X118091557Y-119898412D01*
X118157246Y-119696243D01*
X118190500Y-119486287D01*
X118190500Y-119273713D01*
X118157246Y-119063757D01*
X118091557Y-118861588D01*
X117995051Y-118672184D01*
X117995049Y-118672181D01*
X117995048Y-118672179D01*
X117870109Y-118500213D01*
X117719786Y-118349890D01*
X117547820Y-118224951D01*
X117547115Y-118224591D01*
X117539054Y-118220485D01*
X117488259Y-118172512D01*
X117471463Y-118104692D01*
X117493999Y-118038556D01*
X117539054Y-117999515D01*
X117547816Y-117995051D01*
X117569789Y-117979086D01*
X117719786Y-117870109D01*
X117719788Y-117870106D01*
X117719792Y-117870104D01*
X117870104Y-117719792D01*
X117870106Y-117719788D01*
X117870109Y-117719786D01*
X117995048Y-117547820D01*
X117995047Y-117547820D01*
X117995051Y-117547816D01*
X118091557Y-117358412D01*
X118157246Y-117156243D01*
X118190500Y-116946287D01*
X118190500Y-116733713D01*
X118157246Y-116523757D01*
X118143506Y-116481473D01*
X118141512Y-116411635D01*
X118173755Y-116355478D01*
X118751906Y-115777328D01*
X118751911Y-115777324D01*
X118762114Y-115767120D01*
X118762116Y-115767120D01*
X118873920Y-115655316D01*
X118952977Y-115518384D01*
X118983260Y-115405365D01*
X118993900Y-115365658D01*
X118993900Y-115207543D01*
X118993900Y-88866159D01*
X118993901Y-88866146D01*
X118993901Y-88698045D01*
X118993901Y-88698043D01*
X118952977Y-88545315D01*
X118891840Y-88439423D01*
X118873920Y-88408384D01*
X118762116Y-88296580D01*
X118762113Y-88296578D01*
X118117330Y-87651795D01*
X118083845Y-87590472D01*
X118088829Y-87520780D01*
X118105745Y-87489802D01*
X118133796Y-87452331D01*
X118184091Y-87317483D01*
X118190500Y-87257873D01*
X118190499Y-85462128D01*
X118184091Y-85402517D01*
X118167283Y-85357453D01*
X118133797Y-85267671D01*
X118133793Y-85267664D01*
X118047547Y-85152456D01*
X118047548Y-85152456D01*
X118047546Y-85152454D01*
X117989126Y-85108721D01*
X117947257Y-85052789D01*
X117942273Y-84983097D01*
X117975755Y-84921779D01*
X118472220Y-84425316D01*
X118551277Y-84288384D01*
X118592201Y-84135657D01*
X118592201Y-83977542D01*
X118592201Y-83969947D01*
X118592200Y-83969929D01*
X118592200Y-64166344D01*
X118592199Y-64166337D01*
X118583057Y-64132218D01*
X118551277Y-64013615D01*
X118509512Y-63941277D01*
X118472220Y-63876684D01*
X118360416Y-63764880D01*
X118360415Y-63764879D01*
X118356085Y-63760549D01*
X118356074Y-63760539D01*
X118117330Y-63521795D01*
X118083845Y-63460472D01*
X118088829Y-63390780D01*
X118105745Y-63359802D01*
X118133796Y-63322331D01*
X118184091Y-63187483D01*
X118190500Y-63127873D01*
X118190499Y-61332128D01*
X118184091Y-61272517D01*
X118170455Y-61235958D01*
X118133797Y-61137671D01*
X118133793Y-61137664D01*
X118047547Y-61022455D01*
X118047544Y-61022452D01*
X117932335Y-60936206D01*
X117932328Y-60936202D01*
X117797482Y-60885908D01*
X117797483Y-60885908D01*
X117737883Y-60879501D01*
X117737881Y-60879500D01*
X117737873Y-60879500D01*
X117737864Y-60879500D01*
X115942129Y-60879500D01*
X115942123Y-60879501D01*
X115882516Y-60885908D01*
X115747671Y-60936202D01*
X115747664Y-60936206D01*
X115632455Y-61022452D01*
X115632452Y-61022455D01*
X115546206Y-61137664D01*
X115546202Y-61137671D01*
X115495908Y-61272517D01*
X115489501Y-61332116D01*
X115489501Y-61332123D01*
X115489500Y-61332135D01*
X115489500Y-63127870D01*
X115489501Y-63127876D01*
X115495908Y-63187483D01*
X115546202Y-63322328D01*
X115546206Y-63322335D01*
X115632452Y-63437544D01*
X115632455Y-63437547D01*
X115747664Y-63523793D01*
X115747671Y-63523797D01*
X115879082Y-63572810D01*
X115935016Y-63614681D01*
X115959433Y-63680145D01*
X115944582Y-63748418D01*
X115923431Y-63776673D01*
X115809889Y-63890215D01*
X115684951Y-64062179D01*
X115588444Y-64251585D01*
X115522753Y-64453760D01*
X115521291Y-64462993D01*
X115489500Y-64663713D01*
X115489500Y-64876287D01*
X115493754Y-64903144D01*
X115522735Y-65086127D01*
X115522754Y-65086243D01*
X115560848Y-65203485D01*
X115588444Y-65288414D01*
X115684951Y-65477820D01*
X115809890Y-65649786D01*
X115960213Y-65800109D01*
X116132179Y-65925048D01*
X116132181Y-65925049D01*
X116132184Y-65925051D01*
X116141493Y-65929794D01*
X116192290Y-65977766D01*
X116209087Y-66045587D01*
X116186552Y-66111722D01*
X116141505Y-66150760D01*
X116132446Y-66155376D01*
X116132440Y-66155380D01*
X116078282Y-66194727D01*
X116078282Y-66194728D01*
X116710591Y-66827037D01*
X116647007Y-66844075D01*
X116532993Y-66909901D01*
X116439901Y-67002993D01*
X116374075Y-67117007D01*
X116357037Y-67180591D01*
X115724728Y-66548282D01*
X115724727Y-66548282D01*
X115685380Y-66602439D01*
X115588904Y-66791782D01*
X115523242Y-66993869D01*
X115523242Y-66993872D01*
X115490000Y-67203753D01*
X115490000Y-67416246D01*
X115523242Y-67626127D01*
X115523242Y-67626130D01*
X115588904Y-67828217D01*
X115685375Y-68017550D01*
X115724728Y-68071716D01*
X116357037Y-67439408D01*
X116374075Y-67502993D01*
X116439901Y-67617007D01*
X116532993Y-67710099D01*
X116647007Y-67775925D01*
X116710589Y-67792962D01*
X116078282Y-68425269D01*
X116078282Y-68425270D01*
X116132452Y-68464626D01*
X116132451Y-68464626D01*
X116141495Y-68469234D01*
X116192292Y-68517208D01*
X116209087Y-68585029D01*
X116186550Y-68651164D01*
X116141499Y-68690202D01*
X116132182Y-68694949D01*
X115960213Y-68819890D01*
X115809890Y-68970213D01*
X115684951Y-69142179D01*
X115588444Y-69331585D01*
X115522753Y-69533760D01*
X115489500Y-69743713D01*
X115489500Y-69956286D01*
X115513243Y-70106197D01*
X115522754Y-70166243D01*
X115580963Y-70345392D01*
X115588444Y-70368414D01*
X115684951Y-70557820D01*
X115809890Y-70729786D01*
X115960213Y-70880109D01*
X116132182Y-71005050D01*
X116140946Y-71009516D01*
X116191742Y-71057491D01*
X116208536Y-71125312D01*
X116185998Y-71191447D01*
X116140946Y-71230484D01*
X116132182Y-71234949D01*
X115960213Y-71359890D01*
X115809890Y-71510213D01*
X115684951Y-71682179D01*
X115588444Y-71871585D01*
X115522753Y-72073760D01*
X115489500Y-72283713D01*
X115489500Y-72496286D01*
X115522754Y-72706244D01*
X115522754Y-72706247D01*
X115536491Y-72748523D01*
X115538486Y-72818364D01*
X115506241Y-72874522D01*
X115319586Y-73061178D01*
X115207781Y-73172982D01*
X115207775Y-73172990D01*
X115168697Y-73240677D01*
X115168697Y-73240679D01*
X115128723Y-73309914D01*
X115128723Y-73309915D01*
X115087799Y-73462643D01*
X115087799Y-73462645D01*
X115087799Y-73630746D01*
X115087800Y-73630759D01*
X115087800Y-83859730D01*
X115087799Y-83859748D01*
X115087799Y-83867343D01*
X115087799Y-84025457D01*
X115116775Y-84133594D01*
X115121000Y-84165688D01*
X115121000Y-84258446D01*
X115151761Y-84413089D01*
X115151764Y-84413101D01*
X115212102Y-84558772D01*
X115212109Y-84558785D01*
X115299710Y-84689888D01*
X115299713Y-84689892D01*
X115411207Y-84801386D01*
X115411211Y-84801389D01*
X115542314Y-84888990D01*
X115542318Y-84888992D01*
X115542321Y-84888994D01*
X115625741Y-84923547D01*
X115680141Y-84967386D01*
X115702207Y-85033680D01*
X115684928Y-85101379D01*
X115652601Y-85137371D01*
X115632452Y-85152455D01*
X115546206Y-85267664D01*
X115546202Y-85267671D01*
X115495908Y-85402517D01*
X115491991Y-85438955D01*
X115489501Y-85462123D01*
X115489500Y-85462135D01*
X115489500Y-87257870D01*
X115489501Y-87257876D01*
X115495908Y-87317483D01*
X115546202Y-87452328D01*
X115546206Y-87452335D01*
X115632452Y-87567544D01*
X115632455Y-87567547D01*
X115747664Y-87653793D01*
X115747671Y-87653797D01*
X115792618Y-87670561D01*
X115882517Y-87704091D01*
X115942127Y-87710500D01*
X115952685Y-87710499D01*
X116019723Y-87730179D01*
X116040372Y-87746818D01*
X116710591Y-88417037D01*
X116647007Y-88434075D01*
X116532993Y-88499901D01*
X116439901Y-88592993D01*
X116374075Y-88707007D01*
X116357037Y-88770591D01*
X115724728Y-88138282D01*
X115724727Y-88138282D01*
X115685380Y-88192439D01*
X115588904Y-88381782D01*
X115523242Y-88583869D01*
X115523242Y-88583872D01*
X115490000Y-88793753D01*
X115490000Y-89006246D01*
X115523242Y-89216127D01*
X115523242Y-89216130D01*
X115588904Y-89418217D01*
X115685375Y-89607550D01*
X115724728Y-89661716D01*
X116357037Y-89029408D01*
X116374075Y-89092993D01*
X116439901Y-89207007D01*
X116532993Y-89300099D01*
X116647007Y-89365925D01*
X116710589Y-89382962D01*
X116078282Y-90015269D01*
X116078282Y-90015270D01*
X116132452Y-90054626D01*
X116132451Y-90054626D01*
X116141495Y-90059234D01*
X116192292Y-90107208D01*
X116209087Y-90175029D01*
X116186550Y-90241164D01*
X116141499Y-90280202D01*
X116132182Y-90284949D01*
X115960213Y-90409890D01*
X115809890Y-90560213D01*
X115684951Y-90732179D01*
X115588444Y-90921585D01*
X115522753Y-91123760D01*
X115497435Y-91283611D01*
X115489500Y-91333713D01*
X115489500Y-91546287D01*
X115522754Y-91756243D01*
X115545599Y-91826553D01*
X115588444Y-91958414D01*
X115684951Y-92147820D01*
X115809890Y-92319786D01*
X115960213Y-92470109D01*
X116132182Y-92595050D01*
X116140946Y-92599516D01*
X116191742Y-92647491D01*
X116208536Y-92715312D01*
X116185998Y-92781447D01*
X116140946Y-92820484D01*
X116132182Y-92824949D01*
X115960213Y-92949890D01*
X115809890Y-93100213D01*
X115684951Y-93272179D01*
X115588444Y-93461585D01*
X115522753Y-93663760D01*
X115489500Y-93873713D01*
X115489500Y-94086287D01*
X115522754Y-94296243D01*
X115585623Y-94489734D01*
X115588444Y-94498414D01*
X115684951Y-94687820D01*
X115809890Y-94859786D01*
X115960213Y-95010109D01*
X116132179Y-95135048D01*
X116132181Y-95135049D01*
X116132184Y-95135051D01*
X116321588Y-95231557D01*
X116523757Y-95297246D01*
X116733713Y-95330500D01*
X116733714Y-95330500D01*
X116946286Y-95330500D01*
X116946287Y-95330500D01*
X117156243Y-95297246D01*
X117358412Y-95231557D01*
X117547816Y-95135051D01*
X117580832Y-95111063D01*
X117596015Y-95100033D01*
X117661821Y-95076553D01*
X117729875Y-95092378D01*
X117778570Y-95142484D01*
X117792900Y-95200351D01*
X117792900Y-112826000D01*
X117773215Y-112893039D01*
X117720411Y-112938794D01*
X117668900Y-112950000D01*
X117090000Y-112950000D01*
X117090000Y-113866988D01*
X117032993Y-113834075D01*
X116905826Y-113800000D01*
X116774174Y-113800000D01*
X116647007Y-113834075D01*
X116590000Y-113866988D01*
X116590000Y-112950000D01*
X116174700Y-112950000D01*
X116107661Y-112930315D01*
X116061906Y-112877511D01*
X116050700Y-112826000D01*
X116050700Y-108568145D01*
X116050700Y-108568143D01*
X116009777Y-108415416D01*
X115996745Y-108392843D01*
X115930724Y-108278490D01*
X115930721Y-108278486D01*
X115930720Y-108278484D01*
X115818916Y-108166680D01*
X115818915Y-108166679D01*
X115814585Y-108162349D01*
X115814574Y-108162339D01*
X100115302Y-92463067D01*
X100081817Y-92401744D01*
X100086801Y-92332052D01*
X100102658Y-92302512D01*
X100215051Y-92147816D01*
X100311557Y-91958412D01*
X100377246Y-91756243D01*
X100410500Y-91546287D01*
X100410500Y-91333713D01*
X100377246Y-91123757D01*
X100363506Y-91081473D01*
X100361512Y-91011635D01*
X100393755Y-90955478D01*
X107958313Y-83390921D01*
X107958316Y-83390920D01*
X108070120Y-83279116D01*
X108120239Y-83192304D01*
X108149177Y-83142185D01*
X108190101Y-82989457D01*
X108190101Y-82831343D01*
X108190101Y-82823748D01*
X108190100Y-82823730D01*
X108190100Y-49424408D01*
X108209785Y-49357369D01*
X108262589Y-49311614D01*
X108331747Y-49301670D01*
X108386985Y-49324090D01*
X108441396Y-49363621D01*
X108512184Y-49415051D01*
X108701588Y-49511557D01*
X108903757Y-49577246D01*
X109113713Y-49610500D01*
X109113714Y-49610500D01*
X109326286Y-49610500D01*
X109326287Y-49610500D01*
X109536243Y-49577246D01*
X109738412Y-49511557D01*
X109927816Y-49415051D01*
X109998604Y-49363621D01*
X110099786Y-49290109D01*
X110099788Y-49290106D01*
X110099792Y-49290104D01*
X110250104Y-49139792D01*
X110250106Y-49139788D01*
X110250109Y-49139786D01*
X110375048Y-48967820D01*
X110375047Y-48967820D01*
X110375051Y-48967816D01*
X110471557Y-48778412D01*
X110537246Y-48576243D01*
X110570500Y-48366287D01*
X110570500Y-48153713D01*
X110537246Y-47943757D01*
X110471557Y-47741588D01*
X110375051Y-47552184D01*
X110375049Y-47552181D01*
X110375048Y-47552179D01*
X110250109Y-47380213D01*
X110099786Y-47229890D01*
X109927820Y-47104951D01*
X109927115Y-47104591D01*
X109919054Y-47100485D01*
X109868259Y-47052512D01*
X109851463Y-46984692D01*
X109873999Y-46918556D01*
X109919054Y-46879515D01*
X109927816Y-46875051D01*
X109994720Y-46826443D01*
X110099786Y-46750109D01*
X110099788Y-46750106D01*
X110099792Y-46750104D01*
X110250104Y-46599792D01*
X110250106Y-46599788D01*
X110250109Y-46599786D01*
X110375048Y-46427820D01*
X110375047Y-46427820D01*
X110375051Y-46427816D01*
X110471557Y-46238412D01*
X110537246Y-46036243D01*
X110570500Y-45826287D01*
X110570500Y-45613713D01*
X110537246Y-45403757D01*
X110471557Y-45201588D01*
X110375051Y-45012184D01*
X110375049Y-45012181D01*
X110375048Y-45012179D01*
X110250109Y-44840213D01*
X110099786Y-44689890D01*
X109927820Y-44564951D01*
X109927115Y-44564591D01*
X109919054Y-44560485D01*
X109868259Y-44512512D01*
X109851463Y-44444692D01*
X109873999Y-44378556D01*
X109919054Y-44339515D01*
X109927816Y-44335051D01*
X109949789Y-44319086D01*
X110099786Y-44210109D01*
X110099788Y-44210106D01*
X110099792Y-44210104D01*
X110250104Y-44059792D01*
X110250106Y-44059788D01*
X110250109Y-44059786D01*
X110375048Y-43887820D01*
X110375047Y-43887820D01*
X110375051Y-43887816D01*
X110471557Y-43698412D01*
X110537246Y-43496243D01*
X110570500Y-43286287D01*
X110570500Y-43073713D01*
X110537246Y-42863757D01*
X110471557Y-42661588D01*
X110375051Y-42472184D01*
X110375049Y-42472181D01*
X110375048Y-42472179D01*
X110250109Y-42300213D01*
X110099786Y-42149890D01*
X109927820Y-42024951D01*
X109927115Y-42024591D01*
X109919054Y-42020485D01*
X109868259Y-41972512D01*
X109851463Y-41904692D01*
X109873999Y-41838556D01*
X109919054Y-41799515D01*
X109927816Y-41795051D01*
X109993619Y-41747243D01*
X110099786Y-41670109D01*
X110099788Y-41670106D01*
X110099792Y-41670104D01*
X110250104Y-41519792D01*
X110250106Y-41519788D01*
X110250109Y-41519786D01*
X110375048Y-41347820D01*
X110375047Y-41347820D01*
X110375051Y-41347816D01*
X110471557Y-41158412D01*
X110537246Y-40956243D01*
X110570500Y-40746287D01*
X110570500Y-40533713D01*
X110537246Y-40323757D01*
X110471557Y-40121588D01*
X110375051Y-39932184D01*
X110375049Y-39932181D01*
X110375048Y-39932179D01*
X110250109Y-39760213D01*
X110099786Y-39609890D01*
X109927817Y-39484949D01*
X109918504Y-39480204D01*
X109867707Y-39432230D01*
X109850912Y-39364409D01*
X109873449Y-39298274D01*
X109918507Y-39259232D01*
X109927555Y-39254622D01*
X109981716Y-39215270D01*
X109981717Y-39215270D01*
X109349408Y-38582962D01*
X109412993Y-38565925D01*
X109527007Y-38500099D01*
X109620099Y-38407007D01*
X109685925Y-38292993D01*
X109702962Y-38229408D01*
X110335270Y-38861717D01*
X110335270Y-38861716D01*
X110374622Y-38807554D01*
X110471095Y-38618217D01*
X110536757Y-38416130D01*
X110536757Y-38416127D01*
X110570000Y-38206246D01*
X110570000Y-37993753D01*
X110536757Y-37783872D01*
X110536757Y-37783869D01*
X110471095Y-37581782D01*
X110374624Y-37392449D01*
X110335270Y-37338282D01*
X110335269Y-37338282D01*
X109702962Y-37970590D01*
X109685925Y-37907007D01*
X109620099Y-37792993D01*
X109527007Y-37699901D01*
X109412993Y-37634075D01*
X109349409Y-37617037D01*
X109981716Y-36984728D01*
X109927547Y-36945373D01*
X109927547Y-36945372D01*
X109918500Y-36940763D01*
X109867706Y-36892788D01*
X109850912Y-36824966D01*
X109873451Y-36758832D01*
X109918508Y-36719793D01*
X109927816Y-36715051D01*
X110007007Y-36657515D01*
X110099786Y-36590109D01*
X110099788Y-36590106D01*
X110099792Y-36590104D01*
X110250104Y-36439792D01*
X110250106Y-36439788D01*
X110250109Y-36439786D01*
X110375048Y-36267820D01*
X110375047Y-36267820D01*
X110375051Y-36267816D01*
X110471557Y-36078412D01*
X110537246Y-35876243D01*
X110570500Y-35666287D01*
X110570500Y-35453713D01*
X110537246Y-35243757D01*
X110471557Y-35041588D01*
X110375051Y-34852184D01*
X110375049Y-34852181D01*
X110375048Y-34852179D01*
X110250109Y-34680213D01*
X110136569Y-34566673D01*
X110103084Y-34505350D01*
X110108068Y-34435658D01*
X110149940Y-34379725D01*
X110180915Y-34362810D01*
X110312331Y-34313796D01*
X110427546Y-34227546D01*
X110513796Y-34112331D01*
X110564091Y-33977483D01*
X110570500Y-33917873D01*
X110570499Y-32122135D01*
X120369500Y-32122135D01*
X120369500Y-33917870D01*
X120369501Y-33917876D01*
X120375908Y-33977483D01*
X120426202Y-34112328D01*
X120426206Y-34112335D01*
X120512452Y-34227544D01*
X120512455Y-34227547D01*
X120627664Y-34313793D01*
X120627671Y-34313797D01*
X120759082Y-34362810D01*
X120815016Y-34404681D01*
X120839433Y-34470145D01*
X120824582Y-34538418D01*
X120803431Y-34566673D01*
X120689889Y-34680215D01*
X120564951Y-34852179D01*
X120468444Y-35041585D01*
X120402753Y-35243760D01*
X120369500Y-35453713D01*
X120369500Y-35666286D01*
X120402753Y-35876239D01*
X120468444Y-36078414D01*
X120564951Y-36267820D01*
X120689890Y-36439786D01*
X120840213Y-36590109D01*
X121012179Y-36715048D01*
X121012181Y-36715049D01*
X121012184Y-36715051D01*
X121021493Y-36719794D01*
X121072290Y-36767766D01*
X121089087Y-36835587D01*
X121066552Y-36901722D01*
X121021505Y-36940760D01*
X121012446Y-36945376D01*
X121012440Y-36945380D01*
X120958282Y-36984727D01*
X120958282Y-36984728D01*
X121590591Y-37617037D01*
X121527007Y-37634075D01*
X121412993Y-37699901D01*
X121319901Y-37792993D01*
X121254075Y-37907007D01*
X121237037Y-37970591D01*
X120604728Y-37338282D01*
X120604727Y-37338282D01*
X120565380Y-37392439D01*
X120468904Y-37581782D01*
X120403242Y-37783869D01*
X120403242Y-37783872D01*
X120370000Y-37993753D01*
X120370000Y-38206246D01*
X120403242Y-38416127D01*
X120403242Y-38416130D01*
X120468904Y-38618217D01*
X120565375Y-38807550D01*
X120604728Y-38861716D01*
X121237037Y-38229408D01*
X121254075Y-38292993D01*
X121319901Y-38407007D01*
X121412993Y-38500099D01*
X121527007Y-38565925D01*
X121590590Y-38582962D01*
X120958282Y-39215269D01*
X120958282Y-39215270D01*
X121012452Y-39254626D01*
X121012451Y-39254626D01*
X121021495Y-39259234D01*
X121072292Y-39307208D01*
X121089087Y-39375029D01*
X121066550Y-39441164D01*
X121021499Y-39480202D01*
X121012182Y-39484949D01*
X120840213Y-39609890D01*
X120689890Y-39760213D01*
X120564951Y-39932179D01*
X120468444Y-40121585D01*
X120402753Y-40323760D01*
X120369500Y-40533713D01*
X120369500Y-40746286D01*
X120402753Y-40956239D01*
X120402753Y-40956241D01*
X120402754Y-40956243D01*
X120457431Y-41124522D01*
X120468444Y-41158414D01*
X120564951Y-41347820D01*
X120689890Y-41519786D01*
X120840213Y-41670109D01*
X121012182Y-41795050D01*
X121020946Y-41799516D01*
X121071742Y-41847491D01*
X121088536Y-41915312D01*
X121065998Y-41981447D01*
X121020946Y-42020484D01*
X121012182Y-42024949D01*
X120840213Y-42149890D01*
X120689890Y-42300213D01*
X120564951Y-42472179D01*
X120468444Y-42661585D01*
X120402753Y-42863760D01*
X120378335Y-43017930D01*
X120369500Y-43073713D01*
X120369500Y-43286287D01*
X120402754Y-43496243D01*
X120457431Y-43664522D01*
X120468444Y-43698414D01*
X120564951Y-43887820D01*
X120689890Y-44059786D01*
X120840213Y-44210109D01*
X121012182Y-44335050D01*
X121020946Y-44339516D01*
X121071742Y-44387491D01*
X121088536Y-44455312D01*
X121065998Y-44521447D01*
X121020946Y-44560484D01*
X121012182Y-44564949D01*
X120840213Y-44689890D01*
X120689890Y-44840213D01*
X120564951Y-45012179D01*
X120468444Y-45201585D01*
X120402753Y-45403760D01*
X120378335Y-45557930D01*
X120369500Y-45613713D01*
X120369500Y-45826287D01*
X120402754Y-46036243D01*
X120462546Y-46220264D01*
X120468444Y-46238414D01*
X120564951Y-46427820D01*
X120689890Y-46599786D01*
X120840213Y-46750109D01*
X121012182Y-46875050D01*
X121020946Y-46879516D01*
X121071742Y-46927491D01*
X121088536Y-46995312D01*
X121065998Y-47061447D01*
X121020946Y-47100484D01*
X121012182Y-47104949D01*
X120840213Y-47229890D01*
X120689890Y-47380213D01*
X120564951Y-47552179D01*
X120468444Y-47741585D01*
X120402753Y-47943760D01*
X120377698Y-48101953D01*
X120369500Y-48153713D01*
X120369500Y-48366287D01*
X120402754Y-48576243D01*
X120465508Y-48769380D01*
X120468444Y-48778414D01*
X120564951Y-48967820D01*
X120689890Y-49139786D01*
X120840213Y-49290109D01*
X121012179Y-49415048D01*
X121012181Y-49415049D01*
X121012184Y-49415051D01*
X121201588Y-49511557D01*
X121403757Y-49577246D01*
X121613713Y-49610500D01*
X121613714Y-49610500D01*
X121826286Y-49610500D01*
X121826287Y-49610500D01*
X122036243Y-49577246D01*
X122238412Y-49511557D01*
X122427816Y-49415051D01*
X122498604Y-49363621D01*
X122599786Y-49290109D01*
X122599788Y-49290106D01*
X122599792Y-49290104D01*
X122750104Y-49139792D01*
X122750106Y-49139788D01*
X122750109Y-49139786D01*
X122875048Y-48967820D01*
X122875047Y-48967820D01*
X122875051Y-48967816D01*
X122971557Y-48778412D01*
X123037246Y-48576243D01*
X123070500Y-48366287D01*
X123070500Y-48153713D01*
X123037246Y-47943757D01*
X122971557Y-47741588D01*
X122875051Y-47552184D01*
X122875049Y-47552181D01*
X122875048Y-47552179D01*
X122750109Y-47380213D01*
X122599786Y-47229890D01*
X122427820Y-47104951D01*
X122427115Y-47104591D01*
X122419054Y-47100485D01*
X122368259Y-47052512D01*
X122351463Y-46984692D01*
X122373999Y-46918556D01*
X122419054Y-46879515D01*
X122427816Y-46875051D01*
X122494720Y-46826443D01*
X122599786Y-46750109D01*
X122599788Y-46750106D01*
X122599792Y-46750104D01*
X122750104Y-46599792D01*
X122750106Y-46599788D01*
X122750109Y-46599786D01*
X122875048Y-46427820D01*
X122875047Y-46427820D01*
X122875051Y-46427816D01*
X122971557Y-46238412D01*
X123037246Y-46036243D01*
X123070500Y-45826287D01*
X123070500Y-45613713D01*
X123037246Y-45403757D01*
X122971557Y-45201588D01*
X122875051Y-45012184D01*
X122875049Y-45012181D01*
X122875048Y-45012179D01*
X122750109Y-44840213D01*
X122599786Y-44689890D01*
X122427820Y-44564951D01*
X122427115Y-44564591D01*
X122419054Y-44560485D01*
X122368259Y-44512512D01*
X122351463Y-44444692D01*
X122373999Y-44378556D01*
X122419054Y-44339515D01*
X122427816Y-44335051D01*
X122449789Y-44319086D01*
X122599786Y-44210109D01*
X122599788Y-44210106D01*
X122599792Y-44210104D01*
X122750104Y-44059792D01*
X122750106Y-44059788D01*
X122750109Y-44059786D01*
X122875048Y-43887820D01*
X122875047Y-43887820D01*
X122875051Y-43887816D01*
X122971557Y-43698412D01*
X123037246Y-43496243D01*
X123070500Y-43286287D01*
X123070500Y-43073713D01*
X123037246Y-42863757D01*
X122971557Y-42661588D01*
X122875051Y-42472184D01*
X122875049Y-42472181D01*
X122875048Y-42472179D01*
X122750109Y-42300213D01*
X122599786Y-42149890D01*
X122427820Y-42024951D01*
X122427115Y-42024591D01*
X122419054Y-42020485D01*
X122368259Y-41972512D01*
X122351463Y-41904692D01*
X122373999Y-41838556D01*
X122419054Y-41799515D01*
X122427816Y-41795051D01*
X122493619Y-41747243D01*
X122599786Y-41670109D01*
X122599788Y-41670106D01*
X122599792Y-41670104D01*
X122750104Y-41519792D01*
X122750106Y-41519788D01*
X122750109Y-41519786D01*
X122875048Y-41347820D01*
X122875047Y-41347820D01*
X122875051Y-41347816D01*
X122971557Y-41158412D01*
X123037246Y-40956243D01*
X123070500Y-40746287D01*
X123070500Y-40533713D01*
X123037246Y-40323757D01*
X122971557Y-40121588D01*
X122875051Y-39932184D01*
X122875049Y-39932181D01*
X122875048Y-39932179D01*
X122750109Y-39760213D01*
X122599786Y-39609890D01*
X122427817Y-39484949D01*
X122418504Y-39480204D01*
X122367707Y-39432230D01*
X122350912Y-39364409D01*
X122373449Y-39298274D01*
X122418507Y-39259232D01*
X122427555Y-39254622D01*
X122481716Y-39215270D01*
X122481717Y-39215270D01*
X121849408Y-38582962D01*
X121912993Y-38565925D01*
X122027007Y-38500099D01*
X122120099Y-38407007D01*
X122185925Y-38292993D01*
X122202962Y-38229408D01*
X122835270Y-38861717D01*
X122835270Y-38861716D01*
X122874622Y-38807554D01*
X122971095Y-38618217D01*
X123036757Y-38416130D01*
X123036757Y-38416127D01*
X123070000Y-38206246D01*
X123070000Y-37993753D01*
X123036757Y-37783872D01*
X123036757Y-37783869D01*
X122971095Y-37581782D01*
X122874624Y-37392449D01*
X122835270Y-37338282D01*
X122835269Y-37338282D01*
X122202962Y-37970590D01*
X122185925Y-37907007D01*
X122120099Y-37792993D01*
X122027007Y-37699901D01*
X121912993Y-37634075D01*
X121849409Y-37617037D01*
X122481716Y-36984728D01*
X122427547Y-36945373D01*
X122427547Y-36945372D01*
X122418500Y-36940763D01*
X122367706Y-36892788D01*
X122350912Y-36824966D01*
X122373451Y-36758832D01*
X122418508Y-36719793D01*
X122427816Y-36715051D01*
X122507007Y-36657515D01*
X122599786Y-36590109D01*
X122599788Y-36590106D01*
X122599792Y-36590104D01*
X122750104Y-36439792D01*
X122750106Y-36439788D01*
X122750109Y-36439786D01*
X122875048Y-36267820D01*
X122875047Y-36267820D01*
X122875051Y-36267816D01*
X122971557Y-36078412D01*
X123037246Y-35876243D01*
X123070500Y-35666287D01*
X123070500Y-35453713D01*
X123037246Y-35243757D01*
X122971557Y-35041588D01*
X122875051Y-34852184D01*
X122875049Y-34852181D01*
X122875048Y-34852179D01*
X122750109Y-34680213D01*
X122636569Y-34566673D01*
X122603084Y-34505350D01*
X122608068Y-34435658D01*
X122649940Y-34379725D01*
X122680915Y-34362810D01*
X122812331Y-34313796D01*
X122927546Y-34227546D01*
X123013796Y-34112331D01*
X123064091Y-33977483D01*
X123070500Y-33917873D01*
X123070499Y-32122128D01*
X123064091Y-32062517D01*
X123013796Y-31927669D01*
X123013795Y-31927668D01*
X123013793Y-31927664D01*
X122927547Y-31812455D01*
X122927544Y-31812452D01*
X122812335Y-31726206D01*
X122812328Y-31726202D01*
X122677482Y-31675908D01*
X122677483Y-31675908D01*
X122617883Y-31669501D01*
X122617881Y-31669500D01*
X122617873Y-31669500D01*
X122617864Y-31669500D01*
X120822129Y-31669500D01*
X120822123Y-31669501D01*
X120762516Y-31675908D01*
X120627671Y-31726202D01*
X120627664Y-31726206D01*
X120512455Y-31812452D01*
X120512452Y-31812455D01*
X120426206Y-31927664D01*
X120426202Y-31927671D01*
X120375908Y-32062517D01*
X120369501Y-32122116D01*
X120369501Y-32122123D01*
X120369500Y-32122135D01*
X110570499Y-32122135D01*
X110570499Y-32122128D01*
X110564091Y-32062517D01*
X110513796Y-31927669D01*
X110513795Y-31927668D01*
X110513793Y-31927664D01*
X110427547Y-31812455D01*
X110427544Y-31812452D01*
X110312335Y-31726206D01*
X110312328Y-31726202D01*
X110177482Y-31675908D01*
X110177483Y-31675908D01*
X110117883Y-31669501D01*
X110117881Y-31669500D01*
X110117873Y-31669500D01*
X110117864Y-31669500D01*
X108322129Y-31669500D01*
X108322123Y-31669501D01*
X108262516Y-31675908D01*
X108127671Y-31726202D01*
X108127664Y-31726206D01*
X108012455Y-31812452D01*
X108012452Y-31812455D01*
X107926206Y-31927664D01*
X107926202Y-31927671D01*
X107875908Y-32062517D01*
X107869501Y-32122116D01*
X107869501Y-32122123D01*
X107869500Y-32122135D01*
X107869500Y-33917870D01*
X107869501Y-33917876D01*
X107875908Y-33977483D01*
X107926202Y-34112328D01*
X107926206Y-34112335D01*
X108012452Y-34227544D01*
X108012455Y-34227547D01*
X108127664Y-34313793D01*
X108127671Y-34313797D01*
X108259082Y-34362810D01*
X108315016Y-34404681D01*
X108339433Y-34470145D01*
X108324582Y-34538418D01*
X108303431Y-34566673D01*
X108189889Y-34680215D01*
X108064951Y-34852179D01*
X107968444Y-35041585D01*
X107902753Y-35243760D01*
X107869500Y-35453713D01*
X107869500Y-35666286D01*
X107902753Y-35876239D01*
X107968444Y-36078414D01*
X108064951Y-36267820D01*
X108189890Y-36439786D01*
X108340213Y-36590109D01*
X108512179Y-36715048D01*
X108512181Y-36715049D01*
X108512184Y-36715051D01*
X108521493Y-36719794D01*
X108572290Y-36767766D01*
X108589087Y-36835587D01*
X108566552Y-36901722D01*
X108521505Y-36940760D01*
X108512446Y-36945376D01*
X108512440Y-36945380D01*
X108458282Y-36984727D01*
X108458282Y-36984728D01*
X109090591Y-37617037D01*
X109027007Y-37634075D01*
X108912993Y-37699901D01*
X108819901Y-37792993D01*
X108754075Y-37907007D01*
X108737037Y-37970591D01*
X108104728Y-37338282D01*
X108104727Y-37338282D01*
X108065380Y-37392439D01*
X107968904Y-37581782D01*
X107903242Y-37783869D01*
X107903242Y-37783872D01*
X107870000Y-37993753D01*
X107870000Y-38206246D01*
X107903242Y-38416127D01*
X107903242Y-38416130D01*
X107968904Y-38618217D01*
X108065375Y-38807550D01*
X108104728Y-38861716D01*
X108737037Y-38229408D01*
X108754075Y-38292993D01*
X108819901Y-38407007D01*
X108912993Y-38500099D01*
X109027007Y-38565925D01*
X109090590Y-38582962D01*
X108458282Y-39215269D01*
X108458282Y-39215270D01*
X108512452Y-39254626D01*
X108512451Y-39254626D01*
X108521495Y-39259234D01*
X108572292Y-39307208D01*
X108589087Y-39375029D01*
X108566550Y-39441164D01*
X108521499Y-39480202D01*
X108512182Y-39484949D01*
X108340213Y-39609890D01*
X108189890Y-39760213D01*
X108064951Y-39932179D01*
X107968444Y-40121585D01*
X107902753Y-40323760D01*
X107869500Y-40533713D01*
X107869500Y-40746286D01*
X107902753Y-40956239D01*
X107902753Y-40956241D01*
X107902754Y-40956243D01*
X107957431Y-41124522D01*
X107968444Y-41158414D01*
X108064951Y-41347820D01*
X108189890Y-41519786D01*
X108340213Y-41670109D01*
X108512182Y-41795050D01*
X108520946Y-41799516D01*
X108571742Y-41847491D01*
X108588536Y-41915312D01*
X108565998Y-41981447D01*
X108520946Y-42020484D01*
X108512182Y-42024949D01*
X108340213Y-42149890D01*
X108189890Y-42300213D01*
X108064951Y-42472179D01*
X107968444Y-42661585D01*
X107902753Y-42863760D01*
X107869500Y-43073713D01*
X107869500Y-43286286D01*
X107902754Y-43496244D01*
X107902754Y-43496247D01*
X107916491Y-43538523D01*
X107918486Y-43608364D01*
X107886241Y-43664522D01*
X107220886Y-44329878D01*
X107109081Y-44441682D01*
X107109079Y-44441685D01*
X107077003Y-44497244D01*
X107077002Y-44497246D01*
X107030023Y-44578614D01*
X107030023Y-44578615D01*
X106989099Y-44731343D01*
X106989099Y-44731345D01*
X106989099Y-44899446D01*
X106989100Y-44899459D01*
X106989100Y-82610302D01*
X106969415Y-82677341D01*
X106952781Y-82697983D01*
X100621681Y-89029082D01*
X100560358Y-89062567D01*
X100490666Y-89057583D01*
X100434733Y-89015711D01*
X100410316Y-88950247D01*
X100410000Y-88941401D01*
X100410000Y-88793753D01*
X100376757Y-88583872D01*
X100376757Y-88583869D01*
X100311095Y-88381782D01*
X100214624Y-88192449D01*
X100175270Y-88138282D01*
X100175269Y-88138282D01*
X99542962Y-88770590D01*
X99525925Y-88707007D01*
X99460099Y-88592993D01*
X99367007Y-88499901D01*
X99252993Y-88434075D01*
X99189409Y-88417037D01*
X99859627Y-87746818D01*
X99920950Y-87713333D01*
X99947307Y-87710499D01*
X99957872Y-87710499D01*
X100017483Y-87704091D01*
X100152331Y-87653796D01*
X100267546Y-87567546D01*
X100353796Y-87452331D01*
X100404091Y-87317483D01*
X100410500Y-87257873D01*
X100410499Y-85462128D01*
X100404091Y-85402517D01*
X100387283Y-85357453D01*
X100353797Y-85267671D01*
X100353793Y-85267664D01*
X100267547Y-85152455D01*
X100267544Y-85152452D01*
X100152335Y-85066206D01*
X100152328Y-85066202D01*
X100017482Y-85015908D01*
X100017483Y-85015908D01*
X99957883Y-85009501D01*
X99957881Y-85009500D01*
X99957873Y-85009500D01*
X99957864Y-85009500D01*
X98162129Y-85009500D01*
X98162123Y-85009501D01*
X98102516Y-85015908D01*
X97967671Y-85066202D01*
X97967664Y-85066206D01*
X97852455Y-85152452D01*
X97852452Y-85152455D01*
X97766206Y-85267664D01*
X97766202Y-85267671D01*
X97715908Y-85402517D01*
X97711991Y-85438955D01*
X97709501Y-85462123D01*
X97709500Y-85462135D01*
X97709500Y-87257870D01*
X97709501Y-87257876D01*
X97715908Y-87317483D01*
X97766202Y-87452328D01*
X97766206Y-87452335D01*
X97852452Y-87567544D01*
X97852455Y-87567547D01*
X97967664Y-87653793D01*
X97967671Y-87653797D01*
X98012618Y-87670561D01*
X98102517Y-87704091D01*
X98162127Y-87710500D01*
X98172685Y-87710499D01*
X98239723Y-87730179D01*
X98260372Y-87746818D01*
X98930591Y-88417037D01*
X98867007Y-88434075D01*
X98752993Y-88499901D01*
X98659901Y-88592993D01*
X98594075Y-88707007D01*
X98577037Y-88770591D01*
X97944728Y-88138282D01*
X97944727Y-88138282D01*
X97905380Y-88192439D01*
X97808904Y-88381782D01*
X97743242Y-88583869D01*
X97743242Y-88583872D01*
X97710000Y-88793753D01*
X97710000Y-89006246D01*
X97743242Y-89216127D01*
X97743242Y-89216130D01*
X97808904Y-89418217D01*
X97905375Y-89607550D01*
X97944728Y-89661716D01*
X98577037Y-89029408D01*
X98594075Y-89092993D01*
X98659901Y-89207007D01*
X98752993Y-89300099D01*
X98867007Y-89365925D01*
X98930590Y-89382962D01*
X98298282Y-90015269D01*
X98298282Y-90015270D01*
X98352452Y-90054626D01*
X98352451Y-90054626D01*
X98361495Y-90059234D01*
X98412292Y-90107208D01*
X98429087Y-90175029D01*
X98406550Y-90241164D01*
X98361499Y-90280202D01*
X98352182Y-90284949D01*
X98180213Y-90409890D01*
X98029890Y-90560213D01*
X97904951Y-90732180D01*
X97841701Y-90856314D01*
X97793726Y-90907110D01*
X97725905Y-90923905D01*
X97659770Y-90901367D01*
X97643535Y-90887700D01*
X96427319Y-89671484D01*
X96393834Y-89610161D01*
X96391000Y-89583803D01*
X96391000Y-76473316D01*
X96410685Y-76406277D01*
X96411898Y-76404425D01*
X96499790Y-76272885D01*
X96499790Y-76272884D01*
X96499794Y-76272879D01*
X96560137Y-76127197D01*
X96590900Y-75972542D01*
X96590900Y-75814858D01*
X96590900Y-75814855D01*
X96590899Y-75814853D01*
X96560138Y-75660210D01*
X96560137Y-75660203D01*
X96501715Y-75519158D01*
X96499797Y-75514527D01*
X96499790Y-75514514D01*
X96412189Y-75383411D01*
X96412186Y-75383407D01*
X96300692Y-75271913D01*
X96300688Y-75271910D01*
X96169585Y-75184309D01*
X96169576Y-75184304D01*
X96046580Y-75133358D01*
X95992177Y-75089517D01*
X95970112Y-75023223D01*
X95974257Y-74986709D01*
X96006800Y-74865258D01*
X96006800Y-74707143D01*
X96006800Y-41915360D01*
X96006801Y-41915347D01*
X96006801Y-41747244D01*
X96006801Y-41747243D01*
X95965877Y-41594516D01*
X95965873Y-41594509D01*
X95886824Y-41457590D01*
X95886818Y-41457582D01*
X95553757Y-41124522D01*
X95520272Y-41063199D01*
X95523507Y-40998523D01*
X95537246Y-40956243D01*
X95570500Y-40746287D01*
X95570500Y-40533713D01*
X95537246Y-40323757D01*
X95471557Y-40121588D01*
X95375051Y-39932184D01*
X95375049Y-39932181D01*
X95375048Y-39932179D01*
X95250109Y-39760213D01*
X95099786Y-39609890D01*
X94927817Y-39484949D01*
X94918504Y-39480204D01*
X94867707Y-39432230D01*
X94850912Y-39364409D01*
X94873449Y-39298274D01*
X94918507Y-39259232D01*
X94927555Y-39254622D01*
X94981716Y-39215270D01*
X94981717Y-39215270D01*
X94349408Y-38582962D01*
X94412993Y-38565925D01*
X94527007Y-38500099D01*
X94620099Y-38407007D01*
X94685925Y-38292993D01*
X94702962Y-38229409D01*
X95335270Y-38861717D01*
X95335270Y-38861716D01*
X95374622Y-38807554D01*
X95471095Y-38618217D01*
X95536757Y-38416130D01*
X95536757Y-38416127D01*
X95570000Y-38206246D01*
X95570000Y-37993753D01*
X95536757Y-37783872D01*
X95536757Y-37783869D01*
X95471095Y-37581782D01*
X95374624Y-37392449D01*
X95335270Y-37338282D01*
X95335269Y-37338282D01*
X94702962Y-37970590D01*
X94685925Y-37907007D01*
X94620099Y-37792993D01*
X94527007Y-37699901D01*
X94412993Y-37634075D01*
X94349409Y-37617037D01*
X94981716Y-36984728D01*
X94927547Y-36945373D01*
X94927547Y-36945372D01*
X94918500Y-36940763D01*
X94867706Y-36892788D01*
X94850912Y-36824966D01*
X94873451Y-36758832D01*
X94918508Y-36719793D01*
X94927816Y-36715051D01*
X95007007Y-36657515D01*
X95099786Y-36590109D01*
X95099788Y-36590106D01*
X95099792Y-36590104D01*
X95250104Y-36439792D01*
X95250106Y-36439788D01*
X95250109Y-36439786D01*
X95375048Y-36267820D01*
X95375047Y-36267820D01*
X95375051Y-36267816D01*
X95425742Y-36168328D01*
X95473717Y-36117533D01*
X95541538Y-36100738D01*
X95607672Y-36123275D01*
X95623908Y-36136943D01*
X98423181Y-38936216D01*
X98456666Y-38997539D01*
X98459500Y-39023897D01*
X98459500Y-60755500D01*
X98439815Y-60822539D01*
X98387011Y-60868294D01*
X98335501Y-60879500D01*
X98162130Y-60879500D01*
X98162123Y-60879501D01*
X98102516Y-60885908D01*
X97967671Y-60936202D01*
X97967664Y-60936206D01*
X97852455Y-61022452D01*
X97852452Y-61022455D01*
X97766206Y-61137664D01*
X97766202Y-61137671D01*
X97715908Y-61272517D01*
X97709501Y-61332116D01*
X97709501Y-61332123D01*
X97709500Y-61332135D01*
X97709500Y-63127870D01*
X97709501Y-63127876D01*
X97715908Y-63187483D01*
X97766202Y-63322328D01*
X97766206Y-63322335D01*
X97852452Y-63437544D01*
X97852455Y-63437547D01*
X97967664Y-63523793D01*
X97967671Y-63523797D01*
X98012618Y-63540561D01*
X98102517Y-63574091D01*
X98162127Y-63580500D01*
X98172685Y-63580499D01*
X98239723Y-63600179D01*
X98260372Y-63616818D01*
X98930591Y-64287037D01*
X98867007Y-64304075D01*
X98752993Y-64369901D01*
X98659901Y-64462993D01*
X98594075Y-64577007D01*
X98577037Y-64640591D01*
X97944728Y-64008282D01*
X97944727Y-64008282D01*
X97905380Y-64062439D01*
X97808904Y-64251782D01*
X97743242Y-64453869D01*
X97743242Y-64453872D01*
X97710000Y-64663753D01*
X97710000Y-64876246D01*
X97743242Y-65086127D01*
X97743242Y-65086130D01*
X97808904Y-65288217D01*
X97905375Y-65477550D01*
X97944728Y-65531716D01*
X98577037Y-64899408D01*
X98594075Y-64962993D01*
X98659901Y-65077007D01*
X98752993Y-65170099D01*
X98867007Y-65235925D01*
X98930590Y-65252962D01*
X98298282Y-65885269D01*
X98298282Y-65885270D01*
X98352452Y-65924626D01*
X98352451Y-65924626D01*
X98361495Y-65929234D01*
X98412292Y-65977208D01*
X98429087Y-66045029D01*
X98406550Y-66111164D01*
X98361499Y-66150202D01*
X98352182Y-66154949D01*
X98180213Y-66279890D01*
X98029890Y-66430213D01*
X97904951Y-66602179D01*
X97808444Y-66791585D01*
X97742753Y-66993760D01*
X97713801Y-67176557D01*
X97709500Y-67203713D01*
X97709500Y-67416287D01*
X97714650Y-67448800D01*
X97742735Y-67626127D01*
X97742754Y-67626243D01*
X97797432Y-67794525D01*
X97808444Y-67828414D01*
X97904951Y-68017820D01*
X98029890Y-68189786D01*
X98180213Y-68340109D01*
X98352182Y-68465050D01*
X98360946Y-68469516D01*
X98411742Y-68517491D01*
X98428536Y-68585312D01*
X98405998Y-68651447D01*
X98360946Y-68690484D01*
X98352182Y-68694949D01*
X98180213Y-68819890D01*
X98029890Y-68970213D01*
X97904951Y-69142179D01*
X97808444Y-69331585D01*
X97742753Y-69533760D01*
X97709500Y-69743713D01*
X97709500Y-69956286D01*
X97733243Y-70106197D01*
X97742754Y-70166243D01*
X97800963Y-70345392D01*
X97808444Y-70368414D01*
X97904951Y-70557820D01*
X98029890Y-70729786D01*
X98180213Y-70880109D01*
X98352182Y-71005050D01*
X98360946Y-71009516D01*
X98411742Y-71057491D01*
X98428536Y-71125312D01*
X98405998Y-71191447D01*
X98360946Y-71230484D01*
X98352182Y-71234949D01*
X98180213Y-71359890D01*
X98029890Y-71510213D01*
X97904951Y-71682179D01*
X97808444Y-71871585D01*
X97742753Y-72073760D01*
X97709500Y-72283713D01*
X97709500Y-72496286D01*
X97742360Y-72703760D01*
X97742754Y-72706243D01*
X97805803Y-72900288D01*
X97808444Y-72908414D01*
X97904951Y-73097820D01*
X98029890Y-73269786D01*
X98180213Y-73420109D01*
X98352182Y-73545050D01*
X98360946Y-73549516D01*
X98411742Y-73597491D01*
X98428536Y-73665312D01*
X98405998Y-73731447D01*
X98360946Y-73770484D01*
X98352182Y-73774949D01*
X98180213Y-73899890D01*
X98029890Y-74050213D01*
X97904951Y-74222179D01*
X97808444Y-74411585D01*
X97742753Y-74613760D01*
X97716607Y-74778842D01*
X97709500Y-74823713D01*
X97709500Y-75036287D01*
X97716294Y-75079185D01*
X97732944Y-75184309D01*
X97742754Y-75246243D01*
X97787321Y-75383407D01*
X97808444Y-75448414D01*
X97904951Y-75637820D01*
X98029890Y-75809786D01*
X98180213Y-75960109D01*
X98352179Y-76085048D01*
X98352181Y-76085049D01*
X98352184Y-76085051D01*
X98541588Y-76181557D01*
X98743757Y-76247246D01*
X98953713Y-76280500D01*
X98953714Y-76280500D01*
X99166286Y-76280500D01*
X99166287Y-76280500D01*
X99376243Y-76247246D01*
X99578412Y-76181557D01*
X99767816Y-76085051D01*
X99842978Y-76030443D01*
X99939786Y-75960109D01*
X99939788Y-75960106D01*
X99939792Y-75960104D01*
X100090104Y-75809792D01*
X100090106Y-75809788D01*
X100090109Y-75809786D01*
X100215048Y-75637820D01*
X100215047Y-75637820D01*
X100215051Y-75637816D01*
X100311557Y-75448412D01*
X100377246Y-75246243D01*
X100410500Y-75036287D01*
X100410500Y-74823713D01*
X100377246Y-74613757D01*
X100311557Y-74411588D01*
X100215051Y-74222184D01*
X100215049Y-74222181D01*
X100215048Y-74222179D01*
X100090109Y-74050213D01*
X99939786Y-73899890D01*
X99767820Y-73774951D01*
X99767115Y-73774591D01*
X99759054Y-73770485D01*
X99708259Y-73722512D01*
X99691463Y-73654692D01*
X99713999Y-73588556D01*
X99759054Y-73549515D01*
X99767816Y-73545051D01*
X99842715Y-73490634D01*
X99939786Y-73420109D01*
X99939788Y-73420106D01*
X99939792Y-73420104D01*
X100090104Y-73269792D01*
X100090106Y-73269788D01*
X100090109Y-73269786D01*
X100213902Y-73099397D01*
X100215051Y-73097816D01*
X100311557Y-72908412D01*
X100377246Y-72706243D01*
X100410500Y-72496287D01*
X100410500Y-72283713D01*
X100377246Y-72073757D01*
X100311557Y-71871588D01*
X100215051Y-71682184D01*
X100215049Y-71682181D01*
X100215048Y-71682179D01*
X100090109Y-71510213D01*
X99939786Y-71359890D01*
X99767820Y-71234951D01*
X99767115Y-71234591D01*
X99759054Y-71230485D01*
X99708259Y-71182512D01*
X99691463Y-71114692D01*
X99713999Y-71048556D01*
X99759054Y-71009515D01*
X99767816Y-71005051D01*
X99789789Y-70989086D01*
X99939786Y-70880109D01*
X99939788Y-70880106D01*
X99939792Y-70880104D01*
X100090104Y-70729792D01*
X100090106Y-70729788D01*
X100090109Y-70729786D01*
X100215048Y-70557820D01*
X100215047Y-70557820D01*
X100215051Y-70557816D01*
X100311557Y-70368412D01*
X100377246Y-70166243D01*
X100410500Y-69956287D01*
X100410500Y-69743713D01*
X100377246Y-69533757D01*
X100311557Y-69331588D01*
X100215051Y-69142184D01*
X100215049Y-69142181D01*
X100215048Y-69142179D01*
X100090109Y-68970213D01*
X99939786Y-68819890D01*
X99767820Y-68694951D01*
X99767115Y-68694591D01*
X99759054Y-68690485D01*
X99708259Y-68642512D01*
X99691463Y-68574692D01*
X99713999Y-68508556D01*
X99759054Y-68469515D01*
X99767816Y-68465051D01*
X99822572Y-68425269D01*
X99939786Y-68340109D01*
X99939788Y-68340106D01*
X99939792Y-68340104D01*
X100090104Y-68189792D01*
X100090106Y-68189788D01*
X100090109Y-68189786D01*
X100215048Y-68017820D01*
X100215047Y-68017820D01*
X100215051Y-68017816D01*
X100311557Y-67828412D01*
X100377246Y-67626243D01*
X100410500Y-67416287D01*
X100410500Y-67203713D01*
X100377246Y-66993757D01*
X100311557Y-66791588D01*
X100215051Y-66602184D01*
X100215049Y-66602181D01*
X100215048Y-66602179D01*
X100090109Y-66430213D01*
X99939786Y-66279890D01*
X99767817Y-66154949D01*
X99758504Y-66150204D01*
X99707707Y-66102230D01*
X99690912Y-66034409D01*
X99713449Y-65968274D01*
X99758507Y-65929232D01*
X99767555Y-65924622D01*
X99821716Y-65885270D01*
X99821717Y-65885270D01*
X99189408Y-65252962D01*
X99252993Y-65235925D01*
X99367007Y-65170099D01*
X99460099Y-65077007D01*
X99525925Y-64962993D01*
X99542962Y-64899408D01*
X100175270Y-65531717D01*
X100175270Y-65531716D01*
X100214622Y-65477554D01*
X100311095Y-65288217D01*
X100376757Y-65086130D01*
X100376757Y-65086127D01*
X100410000Y-64876246D01*
X100410000Y-64663753D01*
X100376757Y-64453872D01*
X100376757Y-64453869D01*
X100311095Y-64251782D01*
X100214624Y-64062449D01*
X100175270Y-64008282D01*
X100175269Y-64008282D01*
X99542962Y-64640590D01*
X99525925Y-64577007D01*
X99460099Y-64462993D01*
X99367007Y-64369901D01*
X99252993Y-64304075D01*
X99189409Y-64287037D01*
X99859627Y-63616818D01*
X99920950Y-63583333D01*
X99947307Y-63580499D01*
X99957872Y-63580499D01*
X100017483Y-63574091D01*
X100152331Y-63523796D01*
X100267546Y-63437546D01*
X100353796Y-63322331D01*
X100404091Y-63187483D01*
X100410500Y-63127873D01*
X100410499Y-61332128D01*
X100404091Y-61272517D01*
X100390455Y-61235958D01*
X100353797Y-61137671D01*
X100353793Y-61137664D01*
X100267547Y-61022455D01*
X100267544Y-61022452D01*
X100152335Y-60936206D01*
X100152328Y-60936202D01*
X100017482Y-60885908D01*
X100017483Y-60885908D01*
X99957883Y-60879501D01*
X99957881Y-60879500D01*
X99957873Y-60879500D01*
X99957865Y-60879500D01*
X99784500Y-60879500D01*
X99717461Y-60859815D01*
X99671706Y-60807011D01*
X99660500Y-60755500D01*
X99660500Y-38812860D01*
X99660501Y-38812847D01*
X99660501Y-38644744D01*
X99639381Y-38565925D01*
X99619577Y-38492016D01*
X99575763Y-38416127D01*
X99540524Y-38355090D01*
X99540518Y-38355082D01*
X99261998Y-38076562D01*
X95497287Y-34311852D01*
X95463802Y-34250529D01*
X95468786Y-34180837D01*
X95485700Y-34149861D01*
X95513796Y-34112331D01*
X95564091Y-33977483D01*
X95570500Y-33917873D01*
X95570499Y-32122128D01*
X95564091Y-32062517D01*
X95513796Y-31927669D01*
X95513795Y-31927668D01*
X95513793Y-31927664D01*
X95427547Y-31812455D01*
X95427544Y-31812452D01*
X95312335Y-31726206D01*
X95312328Y-31726202D01*
X95177482Y-31675908D01*
X95177483Y-31675908D01*
X95117883Y-31669501D01*
X95117881Y-31669500D01*
X95117873Y-31669500D01*
X95117864Y-31669500D01*
X93322129Y-31669500D01*
X93322123Y-31669501D01*
X93262516Y-31675908D01*
X93127671Y-31726202D01*
X93127664Y-31726206D01*
X93012455Y-31812452D01*
X93012452Y-31812455D01*
X92926206Y-31927664D01*
X92926202Y-31927671D01*
X92875908Y-32062517D01*
X92869501Y-32122116D01*
X92869501Y-32122123D01*
X92869500Y-32122135D01*
X92869500Y-33917870D01*
X92869501Y-33917876D01*
X92875908Y-33977483D01*
X92926202Y-34112328D01*
X92926206Y-34112335D01*
X93012452Y-34227544D01*
X93012455Y-34227547D01*
X93127664Y-34313793D01*
X93127671Y-34313797D01*
X93259082Y-34362810D01*
X93315016Y-34404681D01*
X93339433Y-34470145D01*
X93324582Y-34538418D01*
X93303431Y-34566673D01*
X93189889Y-34680215D01*
X93064951Y-34852179D01*
X92968444Y-35041585D01*
X92902753Y-35243760D01*
X92869500Y-35453713D01*
X92869500Y-35666286D01*
X92902753Y-35876239D01*
X92968444Y-36078414D01*
X93064951Y-36267820D01*
X93189890Y-36439786D01*
X93340213Y-36590109D01*
X93512179Y-36715048D01*
X93512181Y-36715049D01*
X93512184Y-36715051D01*
X93521493Y-36719794D01*
X93572290Y-36767766D01*
X93589087Y-36835587D01*
X93566552Y-36901722D01*
X93521505Y-36940760D01*
X93512446Y-36945376D01*
X93512440Y-36945380D01*
X93458282Y-36984727D01*
X93458282Y-36984728D01*
X94090591Y-37617037D01*
X94027007Y-37634075D01*
X93912993Y-37699901D01*
X93819901Y-37792993D01*
X93754075Y-37907007D01*
X93737037Y-37970591D01*
X93104728Y-37338282D01*
X93104727Y-37338282D01*
X93065380Y-37392439D01*
X92968904Y-37581782D01*
X92903242Y-37783869D01*
X92903242Y-37783872D01*
X92870000Y-37993753D01*
X92870000Y-38206246D01*
X92903242Y-38416127D01*
X92903242Y-38416130D01*
X92968904Y-38618217D01*
X93065375Y-38807550D01*
X93104728Y-38861716D01*
X93737037Y-38229408D01*
X93754075Y-38292993D01*
X93819901Y-38407007D01*
X93912993Y-38500099D01*
X94027007Y-38565925D01*
X94090590Y-38582962D01*
X93458282Y-39215269D01*
X93458282Y-39215270D01*
X93512452Y-39254626D01*
X93512451Y-39254626D01*
X93521495Y-39259234D01*
X93572292Y-39307208D01*
X93589087Y-39375029D01*
X93566550Y-39441164D01*
X93521499Y-39480202D01*
X93512182Y-39484949D01*
X93340213Y-39609890D01*
X93189890Y-39760213D01*
X93064951Y-39932179D01*
X92968444Y-40121585D01*
X92902753Y-40323760D01*
X92869500Y-40533713D01*
X92869500Y-40746286D01*
X92902753Y-40956239D01*
X92902753Y-40956241D01*
X92902754Y-40956243D01*
X92957431Y-41124522D01*
X92968444Y-41158414D01*
X93064951Y-41347820D01*
X93189890Y-41519786D01*
X93340213Y-41670109D01*
X93512182Y-41795050D01*
X93520946Y-41799516D01*
X93571742Y-41847491D01*
X93588536Y-41915312D01*
X93565998Y-41981447D01*
X93520946Y-42020484D01*
X93512182Y-42024949D01*
X93340213Y-42149890D01*
X93189890Y-42300213D01*
X93064951Y-42472179D01*
X92968444Y-42661585D01*
X92902753Y-42863760D01*
X92878335Y-43017930D01*
X92869500Y-43073713D01*
X92869500Y-43286287D01*
X92902754Y-43496243D01*
X92957431Y-43664522D01*
X92968444Y-43698414D01*
X93064951Y-43887820D01*
X93189890Y-44059786D01*
X93340213Y-44210109D01*
X93512182Y-44335050D01*
X93520946Y-44339516D01*
X93571742Y-44387491D01*
X93588536Y-44455312D01*
X93565998Y-44521447D01*
X93520946Y-44560484D01*
X93512182Y-44564949D01*
X93340213Y-44689890D01*
X93189890Y-44840213D01*
X93064951Y-45012179D01*
X92968444Y-45201585D01*
X92902753Y-45403760D01*
X92869500Y-45613713D01*
X92869500Y-45826286D01*
X92902754Y-46036244D01*
X92902754Y-46036247D01*
X92916491Y-46078523D01*
X92918486Y-46148364D01*
X92886241Y-46204522D01*
X87370281Y-51720483D01*
X87308958Y-51753968D01*
X87239266Y-51748984D01*
X87183333Y-51707112D01*
X87158916Y-51641648D01*
X87158600Y-51632802D01*
X87158600Y-47569765D01*
X87178285Y-47502726D01*
X87179498Y-47500874D01*
X87267490Y-47369185D01*
X87267490Y-47369184D01*
X87267494Y-47369179D01*
X87327837Y-47223497D01*
X87358600Y-47068842D01*
X87358600Y-46911158D01*
X87358600Y-46911155D01*
X87358599Y-46911153D01*
X87352306Y-46879516D01*
X87327837Y-46756503D01*
X87325189Y-46750109D01*
X87267497Y-46610827D01*
X87267490Y-46610814D01*
X87179889Y-46479711D01*
X87179886Y-46479707D01*
X87068392Y-46368213D01*
X87068388Y-46368210D01*
X86937285Y-46280609D01*
X86937272Y-46280602D01*
X86791601Y-46220264D01*
X86791589Y-46220261D01*
X86636945Y-46189500D01*
X86636942Y-46189500D01*
X86479258Y-46189500D01*
X86479255Y-46189500D01*
X86324610Y-46220261D01*
X86324598Y-46220264D01*
X86178927Y-46280602D01*
X86178914Y-46280609D01*
X86047811Y-46368210D01*
X86047807Y-46368213D01*
X85936313Y-46479707D01*
X85936310Y-46479711D01*
X85848709Y-46610814D01*
X85848702Y-46610827D01*
X85788364Y-46756498D01*
X85788361Y-46756510D01*
X85757600Y-46911153D01*
X85757600Y-47068846D01*
X85788361Y-47223489D01*
X85788364Y-47223501D01*
X85848702Y-47369172D01*
X85848709Y-47369185D01*
X85936702Y-47500874D01*
X85957580Y-47567551D01*
X85957600Y-47569765D01*
X85957600Y-58837159D01*
X85937915Y-58904198D01*
X85885111Y-58949953D01*
X85815953Y-58959897D01*
X85752397Y-58930872D01*
X85745919Y-58924840D01*
X85695292Y-58874213D01*
X85695288Y-58874210D01*
X85564185Y-58786609D01*
X85564172Y-58786602D01*
X85418501Y-58726264D01*
X85418489Y-58726261D01*
X85263845Y-58695500D01*
X85263842Y-58695500D01*
X85106158Y-58695500D01*
X85106155Y-58695500D01*
X84951510Y-58726261D01*
X84951498Y-58726264D01*
X84805827Y-58786602D01*
X84805814Y-58786609D01*
X84674711Y-58874210D01*
X84674707Y-58874213D01*
X84563213Y-58985707D01*
X84563210Y-58985711D01*
X84475609Y-59116814D01*
X84475602Y-59116827D01*
X84415264Y-59262498D01*
X84415261Y-59262510D01*
X84384500Y-59417153D01*
X84384500Y-59574846D01*
X84415261Y-59729489D01*
X84415264Y-59729501D01*
X84475602Y-59875172D01*
X84475609Y-59875185D01*
X84563210Y-60006288D01*
X84563213Y-60006292D01*
X84674707Y-60117786D01*
X84674711Y-60117789D01*
X84805814Y-60205390D01*
X84805816Y-60205391D01*
X84805821Y-60205394D01*
X84839654Y-60219408D01*
X84894055Y-60263247D01*
X84916121Y-60329541D01*
X84916200Y-60333968D01*
X84916200Y-62826964D01*
X84896515Y-62894003D01*
X84843711Y-62939758D01*
X84774553Y-62949702D01*
X84710997Y-62920677D01*
X84699081Y-62908848D01*
X84690961Y-62899614D01*
X84663520Y-62852084D01*
X84551716Y-62740280D01*
X84551713Y-62740278D01*
X83552774Y-61741339D01*
X83519289Y-61680016D01*
X83518838Y-61677849D01*
X83487938Y-61522510D01*
X83487937Y-61522503D01*
X83449886Y-61430639D01*
X83427597Y-61376827D01*
X83427590Y-61376814D01*
X83339989Y-61245711D01*
X83339986Y-61245707D01*
X83228492Y-61134213D01*
X83228488Y-61134210D01*
X83097385Y-61046609D01*
X83097372Y-61046602D01*
X82951701Y-60986264D01*
X82951689Y-60986261D01*
X82797045Y-60955500D01*
X82797042Y-60955500D01*
X82639358Y-60955500D01*
X82639355Y-60955500D01*
X82484710Y-60986261D01*
X82484698Y-60986264D01*
X82339027Y-61046602D01*
X82339014Y-61046609D01*
X82207911Y-61134210D01*
X82207907Y-61134213D01*
X82096413Y-61245707D01*
X82096410Y-61245711D01*
X82008809Y-61376814D01*
X82008802Y-61376827D01*
X81948464Y-61522498D01*
X81948461Y-61522510D01*
X81917700Y-61677153D01*
X81917700Y-61834846D01*
X81948461Y-61989489D01*
X81948464Y-61989501D01*
X82008802Y-62135172D01*
X82008809Y-62135185D01*
X82096410Y-62266288D01*
X82096413Y-62266292D01*
X82207909Y-62377788D01*
X82339014Y-62465390D01*
X82339027Y-62465397D01*
X82484698Y-62525735D01*
X82484703Y-62525737D01*
X82549347Y-62538595D01*
X82640049Y-62556638D01*
X82701960Y-62589023D01*
X82703539Y-62590574D01*
X83546181Y-63433216D01*
X83579666Y-63494539D01*
X83582500Y-63520897D01*
X83582500Y-66265188D01*
X83562815Y-66332227D01*
X83510011Y-66377982D01*
X83482692Y-66386805D01*
X83335108Y-66416161D01*
X83335098Y-66416164D01*
X83189427Y-66476502D01*
X83189414Y-66476509D01*
X83058311Y-66564110D01*
X83058307Y-66564113D01*
X82955631Y-66666790D01*
X82894308Y-66700275D01*
X82824616Y-66695291D01*
X82780269Y-66666790D01*
X82710292Y-66596813D01*
X82710288Y-66596810D01*
X82579185Y-66509209D01*
X82579172Y-66509202D01*
X82433501Y-66448864D01*
X82433489Y-66448861D01*
X82278845Y-66418100D01*
X82278842Y-66418100D01*
X82121158Y-66418100D01*
X82121155Y-66418100D01*
X81966510Y-66448861D01*
X81966498Y-66448864D01*
X81820819Y-66509206D01*
X81820041Y-66509622D01*
X81819587Y-66509716D01*
X81815192Y-66511537D01*
X81814846Y-66510702D01*
X81751636Y-66523856D01*
X81686395Y-66498848D01*
X81645031Y-66442539D01*
X81637600Y-66400257D01*
X81637600Y-50322565D01*
X81657285Y-50255526D01*
X81658498Y-50253674D01*
X81746490Y-50121985D01*
X81746490Y-50121984D01*
X81746494Y-50121979D01*
X81806837Y-49976297D01*
X81837600Y-49821642D01*
X81837600Y-49663958D01*
X81837600Y-49663955D01*
X81837599Y-49663953D01*
X81820352Y-49577246D01*
X81806837Y-49509303D01*
X81767796Y-49415048D01*
X81746497Y-49363627D01*
X81746490Y-49363614D01*
X81658889Y-49232511D01*
X81658886Y-49232507D01*
X81547392Y-49121013D01*
X81547388Y-49121010D01*
X81526810Y-49107260D01*
X81482005Y-49053647D01*
X81473298Y-48984322D01*
X81485215Y-48947867D01*
X81571557Y-48778412D01*
X81637246Y-48576243D01*
X81670500Y-48366287D01*
X81670500Y-48153713D01*
X81637246Y-47943757D01*
X81571557Y-47741588D01*
X81475051Y-47552184D01*
X81475049Y-47552181D01*
X81475048Y-47552179D01*
X81350109Y-47380213D01*
X81199786Y-47229890D01*
X81027820Y-47104951D01*
X81027115Y-47104591D01*
X81019054Y-47100485D01*
X80968259Y-47052512D01*
X80951463Y-46984692D01*
X80973999Y-46918556D01*
X81019054Y-46879515D01*
X81027816Y-46875051D01*
X81094720Y-46826443D01*
X81199786Y-46750109D01*
X81199788Y-46750106D01*
X81199792Y-46750104D01*
X81350104Y-46599792D01*
X81350106Y-46599788D01*
X81350109Y-46599786D01*
X81475048Y-46427820D01*
X81475047Y-46427820D01*
X81475051Y-46427816D01*
X81571557Y-46238412D01*
X81637246Y-46036243D01*
X81670500Y-45826287D01*
X81670500Y-45613713D01*
X81637246Y-45403757D01*
X81571557Y-45201588D01*
X81475051Y-45012184D01*
X81475049Y-45012181D01*
X81475048Y-45012179D01*
X81350109Y-44840213D01*
X81199786Y-44689890D01*
X81027820Y-44564951D01*
X81027115Y-44564591D01*
X81019054Y-44560485D01*
X80968259Y-44512512D01*
X80951463Y-44444692D01*
X80973999Y-44378556D01*
X81019054Y-44339515D01*
X81027816Y-44335051D01*
X81049789Y-44319086D01*
X81199786Y-44210109D01*
X81199788Y-44210106D01*
X81199792Y-44210104D01*
X81350104Y-44059792D01*
X81350106Y-44059788D01*
X81350109Y-44059786D01*
X81475048Y-43887820D01*
X81475047Y-43887820D01*
X81475051Y-43887816D01*
X81571557Y-43698412D01*
X81637246Y-43496243D01*
X81670500Y-43286287D01*
X81670500Y-43073713D01*
X81637246Y-42863757D01*
X81571557Y-42661588D01*
X81475051Y-42472184D01*
X81475049Y-42472181D01*
X81475048Y-42472179D01*
X81350109Y-42300213D01*
X81199786Y-42149890D01*
X81027820Y-42024951D01*
X81027115Y-42024591D01*
X81019054Y-42020485D01*
X80968259Y-41972512D01*
X80951463Y-41904692D01*
X80973999Y-41838556D01*
X81019054Y-41799515D01*
X81027816Y-41795051D01*
X81093619Y-41747243D01*
X81199786Y-41670109D01*
X81199788Y-41670106D01*
X81199792Y-41670104D01*
X81350104Y-41519792D01*
X81350106Y-41519788D01*
X81350109Y-41519786D01*
X81475048Y-41347820D01*
X81475047Y-41347820D01*
X81475051Y-41347816D01*
X81571557Y-41158412D01*
X81637246Y-40956243D01*
X81670500Y-40746287D01*
X81670500Y-40533713D01*
X81637246Y-40323757D01*
X81571557Y-40121588D01*
X81475051Y-39932184D01*
X81475049Y-39932181D01*
X81475048Y-39932179D01*
X81350109Y-39760213D01*
X81199786Y-39609890D01*
X81027817Y-39484949D01*
X81018504Y-39480204D01*
X80967707Y-39432230D01*
X80950912Y-39364409D01*
X80973449Y-39298274D01*
X81018507Y-39259232D01*
X81027555Y-39254622D01*
X81081716Y-39215270D01*
X81081717Y-39215270D01*
X80449408Y-38582962D01*
X80512993Y-38565925D01*
X80627007Y-38500099D01*
X80720099Y-38407007D01*
X80785925Y-38292993D01*
X80802962Y-38229408D01*
X81435270Y-38861717D01*
X81435270Y-38861716D01*
X81474622Y-38807554D01*
X81571095Y-38618217D01*
X81636757Y-38416130D01*
X81636757Y-38416127D01*
X81670000Y-38206246D01*
X81670000Y-37993753D01*
X81636757Y-37783872D01*
X81636757Y-37783869D01*
X81571095Y-37581782D01*
X81474624Y-37392449D01*
X81435270Y-37338282D01*
X81435269Y-37338282D01*
X80802962Y-37970590D01*
X80785925Y-37907007D01*
X80720099Y-37792993D01*
X80627007Y-37699901D01*
X80512993Y-37634075D01*
X80449409Y-37617037D01*
X81081716Y-36984728D01*
X81027547Y-36945373D01*
X81027547Y-36945372D01*
X81018500Y-36940763D01*
X80967706Y-36892788D01*
X80950912Y-36824966D01*
X80973451Y-36758832D01*
X81018508Y-36719793D01*
X81027816Y-36715051D01*
X81107007Y-36657515D01*
X81199786Y-36590109D01*
X81199788Y-36590106D01*
X81199792Y-36590104D01*
X81350104Y-36439792D01*
X81350106Y-36439788D01*
X81350109Y-36439786D01*
X81475048Y-36267820D01*
X81475047Y-36267820D01*
X81475051Y-36267816D01*
X81571557Y-36078412D01*
X81637246Y-35876243D01*
X81670500Y-35666287D01*
X81670500Y-35453713D01*
X81637246Y-35243757D01*
X81571557Y-35041588D01*
X81475051Y-34852184D01*
X81475049Y-34852181D01*
X81475048Y-34852179D01*
X81350109Y-34680213D01*
X81236569Y-34566673D01*
X81203084Y-34505350D01*
X81208068Y-34435658D01*
X81249940Y-34379725D01*
X81280915Y-34362810D01*
X81412331Y-34313796D01*
X81527546Y-34227546D01*
X81613796Y-34112331D01*
X81664091Y-33977483D01*
X81670500Y-33917873D01*
X81670499Y-32122128D01*
X81664091Y-32062517D01*
X81613796Y-31927669D01*
X81613795Y-31927668D01*
X81613793Y-31927664D01*
X81527547Y-31812455D01*
X81527544Y-31812452D01*
X81412335Y-31726206D01*
X81412328Y-31726202D01*
X81277482Y-31675908D01*
X81277483Y-31675908D01*
X81217883Y-31669501D01*
X81217881Y-31669500D01*
X81217873Y-31669500D01*
X81217864Y-31669500D01*
X79422129Y-31669500D01*
X79422123Y-31669501D01*
X79362516Y-31675908D01*
X79227671Y-31726202D01*
X79227664Y-31726206D01*
X79112455Y-31812452D01*
X79112452Y-31812455D01*
X79026206Y-31927664D01*
X79026202Y-31927671D01*
X78975908Y-32062517D01*
X78969501Y-32122116D01*
X78969501Y-32122123D01*
X78969500Y-32122135D01*
X78969500Y-33917870D01*
X78969501Y-33917876D01*
X78975908Y-33977483D01*
X79026202Y-34112328D01*
X79026206Y-34112335D01*
X79112452Y-34227544D01*
X79112455Y-34227547D01*
X79227664Y-34313793D01*
X79227671Y-34313797D01*
X79359082Y-34362810D01*
X79415016Y-34404681D01*
X79439433Y-34470145D01*
X79424582Y-34538418D01*
X79403431Y-34566673D01*
X79289889Y-34680215D01*
X79164951Y-34852179D01*
X79068444Y-35041585D01*
X79002753Y-35243760D01*
X78969500Y-35453713D01*
X78969500Y-35666286D01*
X79002753Y-35876239D01*
X79068444Y-36078414D01*
X79164951Y-36267820D01*
X79289890Y-36439786D01*
X79440213Y-36590109D01*
X79612179Y-36715048D01*
X79612181Y-36715049D01*
X79612184Y-36715051D01*
X79621493Y-36719794D01*
X79672290Y-36767766D01*
X79689087Y-36835587D01*
X79666552Y-36901722D01*
X79621505Y-36940760D01*
X79612446Y-36945376D01*
X79612440Y-36945380D01*
X79558282Y-36984727D01*
X79558282Y-36984728D01*
X80190591Y-37617037D01*
X80127007Y-37634075D01*
X80012993Y-37699901D01*
X79919901Y-37792993D01*
X79854075Y-37907007D01*
X79837037Y-37970591D01*
X79204728Y-37338282D01*
X79204727Y-37338282D01*
X79165380Y-37392439D01*
X79068904Y-37581782D01*
X79003242Y-37783869D01*
X79003242Y-37783872D01*
X78970000Y-37993753D01*
X78970000Y-38206246D01*
X79003242Y-38416127D01*
X79003242Y-38416130D01*
X79068904Y-38618217D01*
X79165375Y-38807550D01*
X79204728Y-38861716D01*
X79837037Y-38229408D01*
X79854075Y-38292993D01*
X79919901Y-38407007D01*
X80012993Y-38500099D01*
X80127007Y-38565925D01*
X80190590Y-38582962D01*
X79558282Y-39215269D01*
X79558282Y-39215270D01*
X79612452Y-39254626D01*
X79612451Y-39254626D01*
X79621495Y-39259234D01*
X79672292Y-39307208D01*
X79689087Y-39375029D01*
X79666550Y-39441164D01*
X79621499Y-39480202D01*
X79612182Y-39484949D01*
X79440213Y-39609890D01*
X79289890Y-39760213D01*
X79164951Y-39932179D01*
X79068444Y-40121585D01*
X79002753Y-40323760D01*
X78969500Y-40533713D01*
X78969500Y-40746286D01*
X79002754Y-40956244D01*
X79002754Y-40956247D01*
X79016491Y-40998523D01*
X79018486Y-41068364D01*
X78986241Y-41124522D01*
X72738886Y-47371878D01*
X72627081Y-47483682D01*
X72627079Y-47483684D01*
X72617493Y-47500289D01*
X72587532Y-47552184D01*
X72548023Y-47620615D01*
X72507099Y-47773343D01*
X72507099Y-47773345D01*
X72507099Y-47941446D01*
X72507100Y-47941459D01*
X72507100Y-66068534D01*
X72487415Y-66135573D01*
X72486202Y-66137425D01*
X72398209Y-66269114D01*
X72398202Y-66269127D01*
X72337864Y-66414798D01*
X72337861Y-66414810D01*
X72307100Y-66569453D01*
X72307100Y-66727146D01*
X72337861Y-66881789D01*
X72337864Y-66881801D01*
X72398202Y-67027472D01*
X72398209Y-67027485D01*
X72485810Y-67158588D01*
X72485813Y-67158592D01*
X72597307Y-67270086D01*
X72597311Y-67270089D01*
X72728414Y-67357690D01*
X72728427Y-67357697D01*
X72869878Y-67416287D01*
X72874103Y-67418037D01*
X72990807Y-67441251D01*
X73028753Y-67448799D01*
X73028756Y-67448800D01*
X73028758Y-67448800D01*
X73186444Y-67448800D01*
X73186445Y-67448799D01*
X73341097Y-67418037D01*
X73478148Y-67361268D01*
X73547617Y-67353800D01*
X73610096Y-67385075D01*
X73645748Y-67445164D01*
X73649600Y-67475830D01*
X73649600Y-69255334D01*
X73629915Y-69322373D01*
X73628702Y-69324225D01*
X73540709Y-69455914D01*
X73540702Y-69455927D01*
X73480364Y-69601598D01*
X73480361Y-69601610D01*
X73449600Y-69756253D01*
X73449600Y-69913946D01*
X73480361Y-70068589D01*
X73480364Y-70068601D01*
X73540702Y-70214272D01*
X73540709Y-70214285D01*
X73628310Y-70345388D01*
X73628313Y-70345392D01*
X73739807Y-70456886D01*
X73739811Y-70456889D01*
X73870914Y-70544490D01*
X73870927Y-70544497D01*
X73961686Y-70582090D01*
X74016603Y-70604837D01*
X74171253Y-70635599D01*
X74171256Y-70635600D01*
X74171258Y-70635600D01*
X74328944Y-70635600D01*
X74328945Y-70635599D01*
X74483597Y-70604837D01*
X74629279Y-70544494D01*
X74760389Y-70456889D01*
X74871889Y-70345389D01*
X74959494Y-70214279D01*
X75019837Y-70068597D01*
X75050600Y-69913942D01*
X75050600Y-69756258D01*
X75050600Y-69756255D01*
X75050599Y-69756253D01*
X75027457Y-69639911D01*
X75019837Y-69601603D01*
X74991736Y-69533760D01*
X74959497Y-69455927D01*
X74959490Y-69455914D01*
X74871498Y-69324225D01*
X74850620Y-69257547D01*
X74850600Y-69255334D01*
X74850600Y-49549996D01*
X74870285Y-49482957D01*
X74886914Y-49462320D01*
X78757819Y-45591414D01*
X78819142Y-45557930D01*
X78888834Y-45562914D01*
X78944767Y-45604786D01*
X78969184Y-45670250D01*
X78969500Y-45679096D01*
X78969500Y-45826286D01*
X79002754Y-46036244D01*
X79002754Y-46036247D01*
X79016491Y-46078523D01*
X79018486Y-46148364D01*
X78986241Y-46204522D01*
X78765786Y-46424978D01*
X78653981Y-46536782D01*
X78653975Y-46536790D01*
X78617603Y-46599790D01*
X78617603Y-46599792D01*
X78574923Y-46673714D01*
X78574923Y-46673715D01*
X78533999Y-46826443D01*
X78533999Y-46826445D01*
X78533999Y-46994546D01*
X78534000Y-46994559D01*
X78534000Y-66588434D01*
X78514315Y-66655473D01*
X78513102Y-66657325D01*
X78425109Y-66789014D01*
X78425102Y-66789027D01*
X78364764Y-66934698D01*
X78364761Y-66934710D01*
X78334000Y-67089353D01*
X78334000Y-67247046D01*
X78364761Y-67401689D01*
X78364764Y-67401701D01*
X78425102Y-67547372D01*
X78425109Y-67547385D01*
X78512710Y-67678488D01*
X78512713Y-67678492D01*
X78624207Y-67789986D01*
X78624211Y-67789989D01*
X78755314Y-67877590D01*
X78755327Y-67877597D01*
X78900998Y-67937935D01*
X78901003Y-67937937D01*
X79055653Y-67968699D01*
X79055656Y-67968700D01*
X79055658Y-67968700D01*
X79213344Y-67968700D01*
X79213345Y-67968699D01*
X79367997Y-67937937D01*
X79466548Y-67897115D01*
X79536017Y-67889647D01*
X79598496Y-67920922D01*
X79634148Y-67981011D01*
X79638000Y-68011677D01*
X79638000Y-69292934D01*
X79618315Y-69359973D01*
X79617102Y-69361825D01*
X79529109Y-69493514D01*
X79529102Y-69493527D01*
X79468764Y-69639198D01*
X79468761Y-69639210D01*
X79438000Y-69793853D01*
X79438000Y-69951546D01*
X79468761Y-70106189D01*
X79468764Y-70106201D01*
X79529102Y-70251872D01*
X79529109Y-70251885D01*
X79616710Y-70382988D01*
X79616713Y-70382992D01*
X79728207Y-70494486D01*
X79728211Y-70494489D01*
X79859314Y-70582090D01*
X79859327Y-70582097D01*
X79988494Y-70635599D01*
X80005003Y-70642437D01*
X80159653Y-70673199D01*
X80159656Y-70673200D01*
X80312600Y-70673200D01*
X80379639Y-70692885D01*
X80425394Y-70745689D01*
X80436600Y-70797200D01*
X80436600Y-71163535D01*
X80416915Y-71230574D01*
X80379339Y-71265255D01*
X80380586Y-71267121D01*
X80244411Y-71358110D01*
X80244407Y-71358113D01*
X80132913Y-71469607D01*
X80132910Y-71469611D01*
X80045309Y-71600714D01*
X80045302Y-71600727D01*
X79984964Y-71746398D01*
X79984961Y-71746410D01*
X79954200Y-71901053D01*
X79954200Y-72058746D01*
X79984961Y-72213389D01*
X79984964Y-72213401D01*
X80045302Y-72359072D01*
X80045309Y-72359085D01*
X80121781Y-72473532D01*
X80131268Y-72503832D01*
X80142363Y-72533576D01*
X80141632Y-72536932D01*
X80142659Y-72540209D01*
X80134261Y-72570821D01*
X80127512Y-72601849D01*
X80124730Y-72605564D01*
X80124175Y-72607589D01*
X80106361Y-72630103D01*
X80051185Y-72685280D01*
X79989862Y-72718766D01*
X79963503Y-72721600D01*
X73921257Y-72721600D01*
X73763143Y-72721600D01*
X73610415Y-72762523D01*
X73586039Y-72776597D01*
X73575539Y-72782659D01*
X73575538Y-72782658D01*
X73473487Y-72841577D01*
X73473482Y-72841581D01*
X40930181Y-105384882D01*
X40930177Y-105384887D01*
X40910671Y-105418675D01*
X40910670Y-105418677D01*
X40851123Y-105521815D01*
X40810199Y-105674543D01*
X40810199Y-105674545D01*
X40810199Y-105842646D01*
X40810200Y-105842659D01*
X40810200Y-120526434D01*
X40790515Y-120593473D01*
X40789302Y-120595325D01*
X40701309Y-120727014D01*
X40701302Y-120727027D01*
X40640964Y-120872698D01*
X40640961Y-120872710D01*
X40610200Y-121027353D01*
X28440500Y-121027353D01*
X28440500Y-73914153D01*
X34911600Y-73914153D01*
X34911600Y-74071846D01*
X34942361Y-74226489D01*
X34942364Y-74226501D01*
X35002702Y-74372172D01*
X35002709Y-74372185D01*
X35090310Y-74503288D01*
X35090313Y-74503292D01*
X35201807Y-74614786D01*
X35201811Y-74614789D01*
X35332914Y-74702390D01*
X35332927Y-74702397D01*
X35478598Y-74762735D01*
X35478603Y-74762737D01*
X35633253Y-74793499D01*
X35633256Y-74793500D01*
X35633258Y-74793500D01*
X35790944Y-74793500D01*
X35790945Y-74793499D01*
X35945597Y-74762737D01*
X36091279Y-74702394D01*
X36222389Y-74614789D01*
X36333889Y-74503289D01*
X36421494Y-74372179D01*
X36481837Y-74226497D01*
X36501469Y-74127803D01*
X36512738Y-74071150D01*
X36545123Y-74009239D01*
X36546618Y-74007716D01*
X48720106Y-61834227D01*
X48720111Y-61834224D01*
X48730314Y-61824020D01*
X48730316Y-61824020D01*
X48842120Y-61712216D01*
X48921177Y-61575284D01*
X48962100Y-61422557D01*
X48962100Y-59320753D01*
X57663000Y-59320753D01*
X57663000Y-59478446D01*
X57693761Y-59633089D01*
X57693764Y-59633101D01*
X57754102Y-59778772D01*
X57754109Y-59778785D01*
X57842102Y-59910474D01*
X57862980Y-59977151D01*
X57863000Y-59979365D01*
X57863000Y-76022830D01*
X57862999Y-76022848D01*
X57862999Y-76188554D01*
X57862998Y-76188554D01*
X57903923Y-76341286D01*
X57914119Y-76358945D01*
X57918601Y-76366708D01*
X57919585Y-76368411D01*
X57919586Y-76368416D01*
X57919588Y-76368416D01*
X57943244Y-76409390D01*
X57982979Y-76478214D01*
X57982981Y-76478217D01*
X58101849Y-76597085D01*
X58101855Y-76597090D01*
X61438725Y-79933960D01*
X61472210Y-79995283D01*
X61472661Y-79997449D01*
X61503561Y-80152791D01*
X61503564Y-80152801D01*
X61563902Y-80298472D01*
X61563909Y-80298485D01*
X61651510Y-80429588D01*
X61651513Y-80429592D01*
X61763007Y-80541086D01*
X61763011Y-80541089D01*
X61894114Y-80628690D01*
X61894127Y-80628697D01*
X62021503Y-80681457D01*
X62039803Y-80689037D01*
X62194453Y-80719799D01*
X62194456Y-80719800D01*
X62194458Y-80719800D01*
X62352144Y-80719800D01*
X62352145Y-80719799D01*
X62506797Y-80689037D01*
X62652479Y-80628694D01*
X62783589Y-80541089D01*
X62895089Y-80429589D01*
X62982694Y-80298479D01*
X62990514Y-80279601D01*
X63027880Y-80189389D01*
X63043037Y-80152797D01*
X63073800Y-79998142D01*
X63073800Y-79840458D01*
X63073800Y-79840455D01*
X63073799Y-79840453D01*
X63071494Y-79828865D01*
X63043037Y-79685803D01*
X63010651Y-79607615D01*
X62982697Y-79540127D01*
X62982690Y-79540114D01*
X62895089Y-79409011D01*
X62895086Y-79409007D01*
X62783592Y-79297513D01*
X62783588Y-79297510D01*
X62652485Y-79209909D01*
X62652472Y-79209902D01*
X62506801Y-79149564D01*
X62506791Y-79149561D01*
X62351449Y-79118661D01*
X62289538Y-79086276D01*
X62287960Y-79084725D01*
X60365888Y-77162653D01*
X61472800Y-77162653D01*
X61472800Y-77320346D01*
X61503561Y-77474989D01*
X61503564Y-77475001D01*
X61563902Y-77620672D01*
X61563909Y-77620685D01*
X61651510Y-77751788D01*
X61651513Y-77751792D01*
X61763007Y-77863286D01*
X61763011Y-77863289D01*
X61894114Y-77950890D01*
X61894127Y-77950897D01*
X62039798Y-78011235D01*
X62039803Y-78011237D01*
X62185168Y-78040152D01*
X62194453Y-78041999D01*
X62194456Y-78042000D01*
X62194458Y-78042000D01*
X62352144Y-78042000D01*
X62352145Y-78041999D01*
X62506797Y-78011237D01*
X62652479Y-77950894D01*
X62783589Y-77863289D01*
X62895089Y-77751789D01*
X62982694Y-77620679D01*
X63043037Y-77474997D01*
X63073800Y-77320342D01*
X63073800Y-77162658D01*
X63073800Y-77162655D01*
X63073799Y-77162653D01*
X63062257Y-77104627D01*
X63043037Y-77008003D01*
X63028750Y-76973511D01*
X62982697Y-76862327D01*
X62982690Y-76862314D01*
X62894698Y-76730625D01*
X62873820Y-76663947D01*
X62873800Y-76661734D01*
X62873800Y-62993997D01*
X62893485Y-62926958D01*
X62910119Y-62906316D01*
X64139282Y-61677153D01*
X65425364Y-60391071D01*
X65486685Y-60357588D01*
X65488852Y-60357137D01*
X65489541Y-60357000D01*
X65489542Y-60357000D01*
X65644197Y-60326237D01*
X65789879Y-60265894D01*
X65920989Y-60178289D01*
X66032489Y-60066789D01*
X66120094Y-59935679D01*
X66130777Y-59909889D01*
X66180435Y-59790001D01*
X66180437Y-59789997D01*
X66211200Y-59635342D01*
X66211200Y-59477658D01*
X66211200Y-59477655D01*
X66211199Y-59477653D01*
X66180438Y-59323010D01*
X66180438Y-59323008D01*
X66180437Y-59323003D01*
X66155380Y-59262510D01*
X66120097Y-59177327D01*
X66120090Y-59177314D01*
X66032489Y-59046211D01*
X66032486Y-59046207D01*
X65920992Y-58934713D01*
X65920988Y-58934710D01*
X65789885Y-58847109D01*
X65789872Y-58847102D01*
X65644201Y-58786764D01*
X65644189Y-58786761D01*
X65489545Y-58756000D01*
X65489542Y-58756000D01*
X65331858Y-58756000D01*
X65331855Y-58756000D01*
X65177210Y-58786761D01*
X65177198Y-58786764D01*
X65031527Y-58847102D01*
X65031514Y-58847109D01*
X64900411Y-58934710D01*
X64900407Y-58934713D01*
X64788913Y-59046207D01*
X64788910Y-59046211D01*
X64701309Y-59177314D01*
X64701302Y-59177327D01*
X64640964Y-59322998D01*
X64640961Y-59323008D01*
X64610062Y-59478348D01*
X64577677Y-59540259D01*
X64576126Y-59541837D01*
X61908097Y-62209866D01*
X61908091Y-62209872D01*
X61904586Y-62213378D01*
X61904584Y-62213380D01*
X61792780Y-62325184D01*
X61762409Y-62377789D01*
X61756759Y-62387573D01*
X61756757Y-62387577D01*
X61713724Y-62462113D01*
X61713723Y-62462115D01*
X61672799Y-62614843D01*
X61672799Y-62614845D01*
X61672799Y-62782946D01*
X61672800Y-62782959D01*
X61672800Y-76661734D01*
X61653115Y-76728773D01*
X61651902Y-76730625D01*
X61563909Y-76862314D01*
X61563902Y-76862327D01*
X61503564Y-77007998D01*
X61503561Y-77008010D01*
X61472800Y-77162653D01*
X60365888Y-77162653D01*
X59100319Y-75897084D01*
X59066834Y-75835761D01*
X59064000Y-75809403D01*
X59064000Y-59979365D01*
X59083685Y-59912326D01*
X59084898Y-59910474D01*
X59108482Y-59875179D01*
X59172894Y-59778779D01*
X59233237Y-59633097D01*
X59264000Y-59478442D01*
X59264000Y-59320758D01*
X59264000Y-59320755D01*
X59263999Y-59320753D01*
X59252411Y-59262498D01*
X59233237Y-59166103D01*
X59233235Y-59166098D01*
X59172897Y-59020427D01*
X59172890Y-59020414D01*
X59085289Y-58889311D01*
X59085286Y-58889307D01*
X58973792Y-58777813D01*
X58973788Y-58777810D01*
X58842685Y-58690209D01*
X58842672Y-58690202D01*
X58697001Y-58629864D01*
X58696989Y-58629861D01*
X58542345Y-58599100D01*
X58542342Y-58599100D01*
X58384658Y-58599100D01*
X58384655Y-58599100D01*
X58230010Y-58629861D01*
X58229998Y-58629864D01*
X58084327Y-58690202D01*
X58084314Y-58690209D01*
X57953211Y-58777810D01*
X57953207Y-58777813D01*
X57841713Y-58889307D01*
X57841710Y-58889311D01*
X57754109Y-59020414D01*
X57754102Y-59020427D01*
X57693764Y-59166098D01*
X57693761Y-59166110D01*
X57663000Y-59320753D01*
X48962100Y-59320753D01*
X48962100Y-34593365D01*
X48981785Y-34526326D01*
X48982998Y-34524474D01*
X49070990Y-34392785D01*
X49070990Y-34392784D01*
X49070994Y-34392779D01*
X49131337Y-34247097D01*
X49162100Y-34092442D01*
X49162100Y-33934758D01*
X49162100Y-33934755D01*
X49162099Y-33934753D01*
X49131338Y-33780110D01*
X49131337Y-33780103D01*
X49131335Y-33780098D01*
X49070997Y-33634427D01*
X49070990Y-33634414D01*
X48983389Y-33503311D01*
X48983386Y-33503307D01*
X48871892Y-33391813D01*
X48871888Y-33391810D01*
X48740785Y-33304209D01*
X48740772Y-33304202D01*
X48595101Y-33243864D01*
X48595089Y-33243861D01*
X48440445Y-33213100D01*
X48440442Y-33213100D01*
X48282758Y-33213100D01*
X48282755Y-33213100D01*
X48128110Y-33243861D01*
X48128098Y-33243864D01*
X47982427Y-33304202D01*
X47982414Y-33304209D01*
X47851311Y-33391810D01*
X47851307Y-33391813D01*
X47739813Y-33503307D01*
X47739810Y-33503311D01*
X47652209Y-33634414D01*
X47652202Y-33634427D01*
X47591864Y-33780098D01*
X47591861Y-33780110D01*
X47561100Y-33934753D01*
X47561100Y-34092446D01*
X47591861Y-34247089D01*
X47591864Y-34247101D01*
X47652202Y-34392772D01*
X47652209Y-34392785D01*
X47740202Y-34524474D01*
X47761080Y-34591151D01*
X47761100Y-34593365D01*
X47761100Y-61043403D01*
X47741415Y-61110442D01*
X47724781Y-61131084D01*
X35697439Y-73158425D01*
X35636116Y-73191910D01*
X35633950Y-73192361D01*
X35478608Y-73223261D01*
X35478598Y-73223264D01*
X35332927Y-73283602D01*
X35332914Y-73283609D01*
X35201811Y-73371210D01*
X35201807Y-73371213D01*
X35090313Y-73482707D01*
X35090310Y-73482711D01*
X35002709Y-73613814D01*
X35002702Y-73613827D01*
X34942364Y-73759498D01*
X34942361Y-73759510D01*
X34911600Y-73914153D01*
X28440500Y-73914153D01*
X28440500Y-32884234D01*
X32344500Y-32884234D01*
X32344500Y-33035765D01*
X32383719Y-33182136D01*
X32419357Y-33243861D01*
X32459485Y-33313365D01*
X32566635Y-33420515D01*
X32697865Y-33496281D01*
X32844234Y-33535500D01*
X32844236Y-33535500D01*
X32995764Y-33535500D01*
X32995766Y-33535500D01*
X33142135Y-33496281D01*
X33273365Y-33420515D01*
X33380515Y-33313365D01*
X33456281Y-33182135D01*
X33495500Y-33035766D01*
X33495500Y-32884234D01*
X38124500Y-32884234D01*
X38124500Y-33035765D01*
X38163719Y-33182136D01*
X38199357Y-33243861D01*
X38239485Y-33313365D01*
X38346635Y-33420515D01*
X38477865Y-33496281D01*
X38624234Y-33535500D01*
X38624236Y-33535500D01*
X38775764Y-33535500D01*
X38775766Y-33535500D01*
X38922135Y-33496281D01*
X39053365Y-33420515D01*
X39160515Y-33313365D01*
X39236281Y-33182135D01*
X39275500Y-33035766D01*
X39275500Y-32884234D01*
X39236281Y-32737865D01*
X39160515Y-32606635D01*
X39053365Y-32499485D01*
X38987750Y-32461602D01*
X38922136Y-32423719D01*
X38848950Y-32404109D01*
X38775766Y-32384500D01*
X38624234Y-32384500D01*
X38477863Y-32423719D01*
X38346635Y-32499485D01*
X38346632Y-32499487D01*
X38239487Y-32606632D01*
X38239485Y-32606635D01*
X38163719Y-32737863D01*
X38124500Y-32884234D01*
X33495500Y-32884234D01*
X33456281Y-32737865D01*
X33380515Y-32606635D01*
X33273365Y-32499485D01*
X33207750Y-32461602D01*
X33142136Y-32423719D01*
X33068950Y-32404109D01*
X32995766Y-32384500D01*
X32844234Y-32384500D01*
X32697863Y-32423719D01*
X32566635Y-32499485D01*
X32566632Y-32499487D01*
X32459487Y-32606632D01*
X32459485Y-32606635D01*
X32383719Y-32737863D01*
X32344500Y-32884234D01*
X28440500Y-32884234D01*
X28440500Y-28564500D01*
X28460185Y-28497461D01*
X28512989Y-28451706D01*
X28564500Y-28440500D01*
X37683860Y-28440500D01*
X37750899Y-28460185D01*
G37*
%TD.AperFunction*%
%TD*%
M02*
