%TF.GenerationSoftware,KiCad,Pcbnew,10.0.4*%
%TF.CreationDate,2026-07-09T12:55:40+05:30*%
%TF.ProjectId,adhyayan,61646879-6179-4616-9e2e-6b696361645f,rev?*%
%TF.SameCoordinates,Original*%
%TF.FileFunction,Soldermask,Bot*%
%TF.FilePolarity,Negative*%
%FSLAX46Y46*%
G04 Gerber Fmt 4.6, Leading zero omitted, Abs format (unit mm)*
G04 Created by KiCad (PCBNEW 10.0.4) date 2026-07-09 12:55:40*
%MOMM*%
%LPD*%
G01*
G04 APERTURE LIST*
%ADD10R,1.700000X1.700000*%
%ADD11C,1.700000*%
%ADD12C,0.650000*%
%ADD13O,1.000000X2.100000*%
%ADD14O,1.000000X1.600000*%
G04 APERTURE END LIST*
D10*
%TO.C,J3*%
X99060000Y-62230000D03*
D11*
X99060000Y-64770000D03*
X99060000Y-67310000D03*
X99060000Y-69850000D03*
X99060000Y-72390000D03*
X99060000Y-74930000D03*
%TD*%
D10*
%TO.C,SEN1*%
X94220000Y-33020000D03*
D11*
X94220000Y-35560000D03*
X94220000Y-38100000D03*
X94220000Y-40640000D03*
X94220000Y-43180000D03*
X94220000Y-45720000D03*
X94220000Y-48260000D03*
%TD*%
D10*
%TO.C,I2C1*%
X99060000Y-86360000D03*
D11*
X99060000Y-88900000D03*
X99060000Y-91440000D03*
X99060000Y-93980000D03*
%TD*%
D10*
%TO.C,SERVO1*%
X83820000Y-114300000D03*
D11*
X83820000Y-116840000D03*
X83820000Y-119380000D03*
%TD*%
D10*
%TO.C,SEN2*%
X80320000Y-33020000D03*
D11*
X80320000Y-35560000D03*
X80320000Y-38100000D03*
X80320000Y-40640000D03*
X80320000Y-43180000D03*
X80320000Y-45720000D03*
X80320000Y-48260000D03*
%TD*%
D10*
%TO.C,SEN4*%
X121720000Y-33020000D03*
D11*
X121720000Y-35560000D03*
X121720000Y-38100000D03*
X121720000Y-40640000D03*
X121720000Y-43180000D03*
X121720000Y-45720000D03*
X121720000Y-48260000D03*
%TD*%
D10*
%TO.C,SERVO4*%
X116840000Y-114300000D03*
D11*
X116840000Y-116840000D03*
X116840000Y-119380000D03*
%TD*%
D10*
%TO.C,SERVO2*%
X95180000Y-114300000D03*
D11*
X95180000Y-116840000D03*
X95180000Y-119380000D03*
%TD*%
D10*
%TO.C,UART1*%
X116840000Y-86360000D03*
D11*
X116840000Y-88900000D03*
X116840000Y-91440000D03*
X116840000Y-93980000D03*
%TD*%
D10*
%TO.C,WIRELESS*%
X63500000Y-109220000D03*
D11*
X60960000Y-109220000D03*
X63500000Y-111760000D03*
X60960000Y-111760000D03*
X63500000Y-114300000D03*
X60960000Y-114300000D03*
X63500000Y-116840000D03*
X60960000Y-116840000D03*
X63500000Y-119380000D03*
X60960000Y-119380000D03*
X63500000Y-121920000D03*
X60960000Y-121920000D03*
%TD*%
D10*
%TO.C,J1*%
X116840000Y-62230000D03*
D11*
X116840000Y-64770000D03*
X116840000Y-67310000D03*
X116840000Y-69850000D03*
X116840000Y-72390000D03*
X116840000Y-74930000D03*
%TD*%
D12*
%TO.C,USBC*%
X32920000Y-32960000D03*
X38700000Y-32960000D03*
D13*
X31490000Y-32430000D03*
D14*
X31490000Y-36610000D03*
D13*
X40130000Y-32430000D03*
D14*
X40130000Y-36610000D03*
%TD*%
D10*
%TO.C,SERVO3*%
X106680000Y-114300000D03*
D11*
X106680000Y-116840000D03*
X106680000Y-119380000D03*
%TD*%
D10*
%TO.C,SEN3*%
X109220000Y-33020000D03*
D11*
X109220000Y-35560000D03*
X109220000Y-38100000D03*
X109220000Y-40640000D03*
X109220000Y-43180000D03*
X109220000Y-45720000D03*
X109220000Y-48260000D03*
%TD*%
M02*
